<?xml version="1.0" encoding="utf-8"?>
<!-- Generator: Adobe Illustrator 23.0.5, SVG Export Plug-In . SVG Version: 6.00 Build 0)  -->
<svg version="1.0" id="LOGO" xmlns="http://www.w3.org/2000/svg" xmlns:xlink="http://www.w3.org/1999/xlink" x="0px" y="0px"
	 viewBox="0 0 444.4 514.62" style="enable-background:new 0 0 444.4 514.62;" xml:space="preserve">
<style type="text/css">
	.st0{fill:none;stroke:#CCA939;stroke-width:2.9332;stroke-miterlimit:10;}
	.st1{fill:#ED1C24;}
	.st2{display:none;fill:#ED1C24;}
	.st3{fill:none;stroke:#CCA939;stroke-width:3.7782;stroke-miterlimit:10;}
	.st4{fill:#F8D60B;}
	.st5{fill:none;}
</style>
<g>
	<g id="noodels">
		<g>
			<path d="M116.59,448.37c0.68,1.22,1.46,2.57,2.33,4.06s1.79,3.07,2.77,4.72s2,3.37,3.06,5.13c1.06,1.77,2.14,3.54,3.23,5.32
				s2.17,3.54,3.24,5.28c1.07,1.74,2.1,3.4,3.11,5s1.95,3.09,2.85,4.49c0.9,1.4,1.71,2.64,2.44,3.74c0-3.98,0.01-7.6,0.02-10.87
				c0.01-3.26,0.04-6.21,0.09-8.84c0.04-2.63,0.1-4.96,0.16-7c0.06-2.04,0.14-3.83,0.23-5.37c0.1-1.54,0.21-2.84,0.33-3.92
				c0.13-1.08,0.27-1.96,0.43-2.66c0.13-0.59,0.32-1.09,0.57-1.48c0.24-0.39,0.53-0.71,0.85-0.95c0.32-0.24,0.67-0.4,1.05-0.5
				s0.78-0.14,1.19-0.14c0.99,0,2.03,0.21,3.1,0.65v0.22c-0.73,1.02-1.35,2.36-1.88,4.01s-0.98,3.48-1.35,5.49
				c-0.37,2.01-0.67,4.13-0.9,6.36c-0.23,2.23-0.41,4.44-0.55,6.62c-0.13,2.19-0.23,4.29-0.3,6.31s-0.12,3.82-0.17,5.41
				c-0.03,1.39-0.06,2.76-0.09,4.08c-0.03,1.33-0.06,2.66-0.08,3.99c-0.02,1.33-0.04,2.67-0.06,4.03s-0.02,2.76-0.02,4.2l-2.72,0.36
				l-0.4-0.04c-0.45-0.62-1.01-1.46-1.7-2.5c-0.69-1.05-1.47-2.25-2.33-3.6s-1.79-2.83-2.79-4.43c-1-1.6-2.04-3.27-3.12-5.01
				s-2.17-3.51-3.28-5.32c-1.11-1.81-2.22-3.61-3.31-5.39c-1.09-1.78-2.15-3.52-3.18-5.21s-2-3.28-2.91-4.78
				c-0.91-1.49-1.73-2.85-2.47-4.08c-0.74-1.23-1.37-2.28-1.89-3.14c-0.03,3.28-0.08,6.48-0.15,9.58c-0.07,3.11-0.15,6.1-0.26,8.96
				c-0.1,2.87-0.22,5.58-0.35,8.16c-0.13,2.58-0.26,4.97-0.41,7.18c-0.1,1.56-0.21,2.89-0.32,3.99c-0.11,1.1-0.24,2.02-0.4,2.75
				c-0.16,0.74-0.35,1.32-0.58,1.75c-0.23,0.43-0.52,0.75-0.86,0.97s-0.75,0.35-1.22,0.41c-0.48,0.06-1.04,0.09-1.69,0.09h-0.6
				c-0.12,0-0.27,0-0.45-0.01c-0.18-0.01-0.41-0.02-0.69-0.03l-0.31-0.22c0.64-1.44,1.21-3.05,1.7-4.83c0.5-1.78,0.93-3.67,1.3-5.67
				c0.37-2,0.69-4.06,0.97-6.19c0.27-2.13,0.5-4.26,0.68-6.4s0.32-4.24,0.43-6.31s0.2-4.04,0.26-5.91c0.06-1.87,0.1-3.61,0.11-5.21
				c0.01-1.6,0.02-3,0.02-4.19c0-0.64-0.05-1.18-0.14-1.64c-0.1-0.45-0.27-0.82-0.53-1.11c-0.26-0.29-0.61-0.5-1.06-0.63
				c-0.44-0.13-1.02-0.2-1.74-0.2c-0.5,0-1.07,0.03-1.7,0.09c-0.63,0.06-1.35,0.15-2.15,0.27l-0.25-1.96
				c1.25-0.28,2.38-0.53,3.38-0.76c1.01-0.22,1.92-0.41,2.74-0.56s1.55-0.26,2.22-0.35c0.66-0.08,1.26-0.12,1.79-0.12
				c0.55,0,1.03,0.07,1.44,0.2s0.79,0.35,1.14,0.65c0.35,0.3,0.69,0.69,1.02,1.19S116.19,447.64,116.59,448.37z"/>
		</g>
		<g>
			<path d="M269.52,444.8c1.57-0.3,3.19-0.58,4.85-0.86c1.66-0.27,3.34-0.52,5.03-0.72c1.69-0.21,3.39-0.37,5.09-0.5
				c1.7-0.13,3.38-0.19,5.04-0.19c2.32,0,4.56,0.14,6.74,0.43c2.17,0.29,4.22,0.78,6.15,1.47c1.92,0.69,3.68,1.61,5.29,2.76
				c1.6,1.15,2.98,2.58,4.13,4.3c1.15,1.71,2.04,3.74,2.68,6.09c0.64,2.35,0.96,5.05,0.96,8.13c0,2.76-0.28,5.41-0.82,7.94
				c-0.55,2.53-1.35,4.89-2.4,7.07c-1.05,2.18-2.34,4.16-3.86,5.95s-3.26,3.31-5.21,4.58c-1.95,1.27-4.1,2.25-6.46,2.94
				c-2.35,0.69-4.88,1.04-7.58,1.04c-1.39,0-2.81-0.1-4.25-0.29c-1.44-0.19-2.94-0.49-4.5-0.89l-4.41,0.53l-0.4-0.04
				c0.1-0.95,0.22-2.21,0.33-3.77c0.12-1.57,0.23-3.39,0.35-5.47s0.22-4.39,0.32-6.94c0.1-2.55,0.2-5.28,0.28-8.22
				c0.08-2.93,0.15-6.02,0.19-9.27c0.04-3.25,0.07-6.63,0.07-10.13c0-0.71-0.03-1.34-0.09-1.87s-0.21-0.98-0.46-1.34
				s-0.61-0.62-1.09-0.8s-1.14-0.27-1.97-0.27c-0.98,0-2.23,0.11-3.76,0.33L269.52,444.8z M282.94,445.54
				c-0.01,0.74-0.04,1.85-0.07,3.32c-0.03,1.47-0.07,3.18-0.11,5.13c-0.04,1.95-0.1,4.08-0.17,6.39c-0.07,2.31-0.14,4.67-0.21,7.08
				s-0.16,4.81-0.25,7.2s-0.18,4.65-0.27,6.77c-0.09,2.12-0.18,4.05-0.28,5.78c-0.1,1.73-0.19,3.14-0.28,4.22
				c1.47,0.39,2.82,0.64,4.06,0.77c1.24,0.13,2.46,0.19,3.66,0.19c2.49,0,4.72-0.31,6.69-0.93c1.97-0.62,3.7-1.5,5.19-2.62
				s2.76-2.45,3.81-4c1.05-1.54,1.9-3.24,2.56-5.08c0.66-1.84,1.14-3.8,1.45-5.88c0.3-2.08,0.46-4.21,0.46-6.39
				c0-3.27-0.36-6.26-1.08-8.97c-0.72-2.72-1.89-5.05-3.52-7.01s-3.74-3.48-6.36-4.58c-2.61-1.09-5.8-1.64-9.57-1.64
				c-0.94,0-1.88,0.02-2.83,0.07C284.89,445.41,283.92,445.47,282.94,445.54z"/>
			<path d="M326.56,450.08c0-0.7-0.03-1.29-0.1-1.79c-0.07-0.5-0.22-0.9-0.46-1.21c-0.24-0.31-0.58-0.54-1.01-0.68
				c-0.44-0.14-1.02-0.21-1.75-0.21c-0.49,0-1.09,0.03-1.8,0.08c-0.71,0.05-1.46,0.14-2.23,0.26l-0.22-1.85
				c2.18-0.56,4.06-0.98,5.62-1.25c1.57-0.27,2.86-0.4,3.88-0.4c0.98,0,1.73,0.13,2.26,0.39c0.53,0.26,0.91,0.65,1.16,1.16
				c0.25,0.51,0.39,1.14,0.43,1.88c0.04,0.74,0.07,1.59,0.07,2.54c0,0.06-0.01,0.55-0.02,1.47c-0.01,0.92-0.04,2.14-0.08,3.66
				s-0.08,3.29-0.13,5.3c-0.05,2.01-0.11,4.14-0.18,6.39s-0.14,4.56-0.23,6.94c-0.09,2.38-0.19,4.68-0.3,6.92s-0.23,4.36-0.36,6.37
				s-0.26,3.76-0.41,5.25c1.42-0.21,2.77-0.36,4.03-0.46s2.43-0.14,3.52-0.14c1.53,0,2.96,0.04,4.29,0.12
				c1.33,0.08,2.64,0.12,3.93,0.12c0.91,0,1.71-0.13,2.42-0.4s1.31-0.73,1.82-1.4c0.5-0.67,0.92-1.57,1.26-2.72
				c0.33-1.14,0.59-2.6,0.77-4.36l1.94,0.16c-0.01,2.61-0.17,4.76-0.48,6.45c-0.3,1.69-0.74,3.01-1.3,3.99
				c-0.56,0.97-1.25,1.65-2.06,2.03c-0.81,0.38-1.73,0.57-2.77,0.57c-0.79,0-1.66-0.07-2.6-0.22c-0.95-0.15-1.99-0.32-3.11-0.5
				s-2.33-0.35-3.64-0.5c-1.31-0.15-2.72-0.22-4.23-0.22c-1.35,0-2.82,0.08-4.4,0.26c-1.58,0.17-3.2,0.46-4.87,0.86l-0.4-0.04
				c0.25-2.03,0.47-4.22,0.66-6.56s0.34-4.77,0.47-7.29c0.13-2.52,0.23-5.11,0.32-7.75c0.09-2.64,0.16-5.28,0.2-7.93
				c0.04-2.64,0.07-5.25,0.09-7.82C326.55,454.95,326.56,452.47,326.56,450.08z"/>
			<path d="M363.3,449.97c0-0.62-0.05-1.16-0.15-1.6s-0.27-0.8-0.53-1.08c-0.26-0.27-0.62-0.47-1.08-0.6s-1.05-0.19-1.78-0.19
				c-0.47,0-1.01,0.03-1.6,0.08s-1.27,0.12-2.03,0.21l-0.25-2.07c1.46-0.22,2.81-0.42,4.05-0.59s2.42-0.32,3.51-0.45
				s2.11-0.22,3.06-0.28c0.95-0.06,1.85-0.09,2.69-0.09c2.35,0,4.57-0.02,6.67-0.06s3.96-0.07,5.59-0.11
				c1.63-0.04,2.96-0.07,4.01-0.11c1.05-0.04,1.69-0.06,1.93-0.06c0.68,0,1.21,0.16,1.57,0.48c0.36,0.32,0.55,0.81,0.55,1.48
				c0,0.27-0.03,0.79-0.08,1.56s-0.12,1.66-0.2,2.66c-0.08,1-0.17,2.06-0.28,3.17c-0.1,1.11-0.22,2.15-0.33,3.12l-2.14-0.07
				c0.03-0.56,0.05-1.09,0.07-1.58c0.01-0.49,0.02-0.95,0.02-1.38c0-1.25-0.07-2.26-0.22-3.04s-0.42-1.39-0.81-1.84
				s-0.93-0.75-1.61-0.91s-1.55-0.25-2.6-0.27c-1.47-0.01-2.76-0.03-3.88-0.03s-2.18-0.01-3.21-0.01h-1.18c-0.56,0-1.14,0-1.73,0.01
				c-0.59,0.01-1.29,0.03-2.13,0.06c-0.03,1.23-0.06,2.61-0.1,4.13c-0.04,1.52-0.08,3.15-0.12,4.89c-0.04,1.74-0.09,3.57-0.14,5.5
				c-0.05,1.93-0.11,3.92-0.17,5.97c1.92,0.09,3.61,0.15,5.1,0.19s2.86,0.06,4.12,0.06c1.53,0,2.88-0.05,4.06-0.15
				c1.18-0.1,2.3-0.25,3.35-0.46c0.24,0.65,0.36,1.24,0.36,1.76c0,0.43-0.13,0.79-0.4,1.09c-0.27,0.3-0.65,0.54-1.14,0.72
				c-0.49,0.19-1.08,0.32-1.78,0.4c-0.7,0.08-1.48,0.12-2.34,0.12c-1.53,0-3.26-0.08-5.2-0.26c-1.94-0.17-4.01-0.38-6.22-0.63
				c-0.03,0.86-0.07,1.9-0.11,3.11s-0.1,2.5-0.16,3.86c-0.06,1.37-0.13,2.76-0.21,4.2c-0.08,1.43-0.16,2.81-0.25,4.12
				c-0.08,1.31-0.17,2.52-0.27,3.61c-0.1,1.09-0.2,1.99-0.3,2.68c1.44-0.21,2.84-0.36,4.21-0.46c1.37-0.1,2.6-0.14,3.72-0.14
				c1.56,0,3.02,0.04,4.38,0.12c1.36,0.08,2.71,0.12,4.04,0.12c0.89,0,1.67-0.12,2.35-0.37s1.27-0.68,1.77-1.31
				c0.5-0.63,0.92-1.48,1.26-2.55c0.33-1.07,0.6-2.43,0.79-4.07l2,0.11c-0.04,2.49-0.22,4.55-0.53,6.17s-0.75,2.89-1.3,3.83
				c-0.56,0.94-1.24,1.58-2.04,1.95s-1.71,0.55-2.72,0.55c-0.8,0-1.69-0.07-2.65-0.22s-2.02-0.32-3.16-0.5
				c-1.14-0.19-2.38-0.35-3.71-0.5c-1.33-0.15-2.76-0.22-4.29-0.22c-1.35,0-2.84,0.08-4.46,0.26c-1.63,0.17-3.29,0.46-5,0.86
				l-0.4-0.04c0.22-1.48,0.42-3.28,0.59-5.39c0.17-2.11,0.32-4.41,0.46-6.91c0.13-2.5,0.25-5.14,0.33-7.92s0.16-5.58,0.22-8.41
				c0.06-2.83,0.1-5.63,0.12-8.39C363.28,455.07,363.3,452.45,363.3,449.97z"/>
			<path d="M397.8,481.12c-0.04,0.36-0.07,0.7-0.09,1.02c-0.02,0.33-0.02,0.65-0.02,0.98c0,1.69,0.23,3.13,0.68,4.31
				c0.45,1.18,1.1,2.14,1.94,2.88s1.85,1.28,3.03,1.61c1.18,0.33,2.5,0.5,3.97,0.5c1.47,0,2.87-0.2,4.19-0.61s2.48-1.02,3.48-1.84
				s1.8-1.83,2.39-3.04s0.89-2.61,0.89-4.2c0-1.01-0.14-1.93-0.41-2.77c-0.27-0.84-0.65-1.61-1.14-2.32
				c-0.48-0.7-1.05-1.35-1.71-1.95c-0.66-0.59-1.38-1.15-2.16-1.68c-0.78-0.53-1.6-1.03-2.46-1.51c-0.86-0.48-1.74-0.97-2.63-1.46
				c-0.93-0.5-1.87-1.02-2.79-1.56s-1.81-1.11-2.66-1.71c-0.85-0.61-1.63-1.27-2.36-1.97c-0.73-0.71-1.35-1.49-1.88-2.35
				c-0.53-0.86-0.94-1.81-1.25-2.85c-0.3-1.04-0.46-2.19-0.46-3.45c0-1.57,0.2-3.04,0.6-4.4c0.4-1.36,0.96-2.6,1.68-3.74
				s1.58-2.15,2.58-3.04s2.1-1.64,3.29-2.26c1.19-0.62,2.47-1.08,3.83-1.4c1.36-0.32,2.75-0.48,4.17-0.48
				c0.65,0,1.35,0.04,2.09,0.12c0.74,0.08,1.48,0.2,2.23,0.37c0.74,0.16,1.45,0.36,2.13,0.59c0.68,0.23,1.27,0.49,1.79,0.79
				c0.52,0.3,0.93,0.62,1.25,0.98c0.31,0.36,0.47,0.74,0.47,1.14c0,0.43-0.01,0.97-0.02,1.61s-0.03,1.38-0.06,2.2
				c-0.02,0.82-0.06,1.72-0.1,2.69c-0.04,0.97-0.1,2-0.16,3.08l-2.25-0.11c0.04-0.53,0.07-1.05,0.07-1.54
				c0-1.47-0.22-2.76-0.66-3.89s-1.05-2.06-1.85-2.81c-0.79-0.75-1.75-1.31-2.87-1.69c-1.12-0.38-2.36-0.57-3.73-0.57
				c-1.37,0-2.64,0.23-3.82,0.68c-1.18,0.45-2.2,1.08-3.06,1.89c-0.86,0.81-1.54,1.77-2.03,2.88c-0.49,1.11-0.74,2.34-0.74,3.67
				c0,1.08,0.14,2.07,0.42,2.95c0.28,0.88,0.67,1.7,1.17,2.44c0.5,0.74,1.09,1.42,1.77,2.03c0.68,0.61,1.42,1.18,2.23,1.73
				c0.8,0.54,1.65,1.06,2.54,1.55c0.89,0.49,1.79,0.98,2.69,1.47c0.94,0.49,1.87,0.99,2.79,1.51s1.82,1.07,2.66,1.66
				c0.85,0.59,1.63,1.22,2.35,1.91c0.72,0.69,1.34,1.46,1.87,2.29c0.53,0.84,0.94,1.76,1.25,2.77c0.3,1.01,0.46,2.13,0.46,3.36
				c0,2.03-0.28,3.84-0.83,5.41c-0.56,1.57-1.3,2.94-2.24,4.11c-0.93,1.17-2.01,2.15-3.22,2.95c-1.21,0.8-2.47,1.45-3.77,1.94
				c-1.31,0.49-2.61,0.84-3.92,1.06c-1.31,0.21-2.52,0.32-3.63,0.32c-1.47,0-2.85-0.1-4.14-0.3c-1.29-0.2-2.42-0.46-3.4-0.79
				c-0.97-0.33-1.74-0.7-2.29-1.12c-0.56-0.42-0.83-0.86-0.83-1.3c0-0.99,0.03-2.42,0.1-4.28c0.07-1.86,0.17-4.06,0.32-6.61
				L397.8,481.12z"/>
		</g>
		<g>
			<path class="st0" d="M244.67,468.56c0,4.37-3.54,7.92-7.92,7.92c-4.37,0-7.92-3.54-7.92-7.92c0-4.37,3.54-7.92,7.92-7.92
				C241.12,460.64,244.67,464.18,244.67,468.56z"/>
			<path class="st0" d="M190.43,468.56c0,4.37-3.54,7.92-7.92,7.92c-4.37,0-7.92-3.54-7.92-7.92c0-4.37,3.54-7.92,7.92-7.92
				C186.89,460.64,190.43,464.18,190.43,468.56z"/>
			<path class="st0" d="M257.88,468.56c0,11.67-9.46,21.13-21.13,21.13c-11.67,0-21.13-9.46-21.13-21.13
				c0-11.67,9.46-21.13,21.13-21.13C248.42,447.43,257.88,456.89,257.88,468.56z"/>
			<path class="st0" d="M269.86,469.07c0,18.29-14.82,33.11-33.11,33.11s-33.11-14.82-33.11-33.11c0-18.29,14.82-33.11,33.11-33.11
				S269.86,450.78,269.86,469.07z"/>
			<path class="st0" d="M203.64,468.56c0,11.67-9.46,21.13-21.13,21.13c-11.67,0-21.13-9.46-21.13-21.13
				c0-11.67,9.46-21.13,21.13-21.13C194.18,447.43,203.64,456.89,203.64,468.56z"/>
			<path class="st0" d="M215.62,469.07c0,18.29-14.82,33.11-33.11,33.11s-33.11-14.82-33.11-33.11c0-18.29,14.82-33.11,33.11-33.11
				S215.62,450.78,215.62,469.07z"/>
		</g>
	</g>
	<g>
		<path class="st1" d="M155.34,396.32c0-0.49-0.02-0.91-0.07-1.26c-0.05-0.35-0.15-0.63-0.32-0.85c-0.17-0.22-0.41-0.38-0.71-0.48
			c-0.31-0.1-0.72-0.15-1.23-0.15c-0.35,0-0.77,0.02-1.27,0.05c-0.5,0.04-1.02,0.1-1.57,0.18l-0.16-1.3
			c1.54-0.4,2.86-0.69,3.96-0.88c1.1-0.19,2.02-0.28,2.74-0.28c0.69,0,1.22,0.09,1.59,0.27c0.37,0.18,0.64,0.46,0.82,0.82
			c0.17,0.36,0.27,0.8,0.31,1.33s0.05,1.12,0.05,1.79c0,0.23-0.01,0.84-0.04,1.84c-0.03,1-0.06,2.28-0.11,3.84
			c-0.05,1.56-0.1,3.36-0.16,5.39c-0.06,2.03-0.13,4.18-0.2,6.47s-0.14,4.64-0.21,7.08c-0.07,2.44-0.15,4.84-0.22,7.23l-3.72,0.47
			l-0.28-0.03c0.13-3,0.24-5.84,0.34-8.52c0.1-2.68,0.19-5.29,0.26-7.82s0.13-5.04,0.16-7.53
			C155.32,401.48,155.34,398.93,155.34,396.32z"/>
		<path class="st1" d="M175.5,394.03c0.48,0.86,1.03,1.81,1.64,2.86c0.61,1.05,1.26,2.16,1.95,3.32c0.69,1.17,1.41,2.37,2.16,3.62
			s1.51,2.49,2.27,3.75c0.77,1.25,1.53,2.49,2.28,3.72c0.75,1.22,1.48,2.4,2.19,3.52c0.71,1.12,1.38,2.18,2.01,3.16
			c0.63,0.98,1.21,1.86,1.72,2.63c0-2.8,0-5.35,0.02-7.65c0.01-2.3,0.03-4.38,0.06-6.23c0.03-1.85,0.07-3.49,0.11-4.93
			c0.04-1.44,0.1-2.7,0.16-3.78s0.15-2,0.24-2.76s0.19-1.38,0.31-1.87c0.09-0.42,0.23-0.77,0.4-1.04c0.17-0.28,0.37-0.5,0.6-0.67
			c0.22-0.17,0.47-0.28,0.74-0.35s0.55-0.1,0.84-0.1c0.7,0,1.43,0.15,2.18,0.46v0.16c-0.51,0.72-0.95,1.66-1.33,2.82
			s-0.69,2.45-0.95,3.87c-0.26,1.42-0.47,2.91-0.63,4.48c-0.16,1.57-0.29,3.12-0.38,4.67s-0.16,3.02-0.21,4.45
			c-0.05,1.42-0.09,2.69-0.12,3.81c-0.02,0.98-0.04,1.94-0.06,2.88c-0.02,0.94-0.04,1.87-0.05,2.81s-0.03,1.88-0.04,2.84
			c-0.01,0.96-0.02,1.94-0.02,2.96l-1.91,0.25l-0.28-0.03c-0.31-0.44-0.71-1.03-1.2-1.76c-0.49-0.74-1.03-1.58-1.64-2.53
			s-1.26-1.99-1.97-3.12c-0.71-1.13-1.44-2.31-2.2-3.53c-0.76-1.22-1.53-2.47-2.31-3.75s-1.56-2.54-2.33-3.79s-1.52-2.48-2.24-3.67
			c-0.73-1.19-1.41-2.31-2.05-3.36s-1.22-2.01-1.74-2.88c-0.52-0.87-0.97-1.6-1.33-2.21c-0.02,2.31-0.05,4.56-0.1,6.75
			c-0.05,2.19-0.11,4.29-0.18,6.31c-0.07,2.02-0.15,3.93-0.24,5.75c-0.09,1.81-0.19,3.5-0.29,5.06c-0.07,1.1-0.15,2.03-0.23,2.81
			c-0.08,0.77-0.17,1.42-0.28,1.94c-0.11,0.52-0.25,0.93-0.41,1.23c-0.16,0.3-0.36,0.53-0.6,0.68c-0.24,0.15-0.53,0.25-0.86,0.29
			c-0.33,0.04-0.73,0.06-1.19,0.06h-0.42c-0.08,0-0.19,0-0.31-0.01c-0.13-0.01-0.29-0.01-0.49-0.02l-0.22-0.16
			c0.45-1.01,0.85-2.15,1.2-3.4c0.35-1.25,0.66-2.58,0.92-3.99c0.26-1.41,0.49-2.86,0.68-4.36c0.19-1.5,0.35-3,0.48-4.51
			c0.13-1.5,0.23-2.99,0.31-4.45c0.08-1.46,0.14-2.85,0.18-4.16c0.04-1.32,0.07-2.54,0.08-3.67c0.01-1.13,0.02-2.11,0.02-2.95
			c0-0.45-0.03-0.83-0.1-1.15c-0.07-0.32-0.19-0.58-0.38-0.78c-0.18-0.2-0.43-0.35-0.75-0.45c-0.31-0.09-0.72-0.14-1.22-0.14
			c-0.36,0-0.76,0.02-1.2,0.06c-0.44,0.04-0.95,0.1-1.51,0.19l-0.17-1.38c0.88-0.2,1.67-0.38,2.38-0.53
			c0.71-0.16,1.35-0.29,1.93-0.39c0.57-0.1,1.09-0.19,1.56-0.24s0.89-0.09,1.26-0.09c0.39,0,0.72,0.05,1.01,0.14
			c0.29,0.09,0.55,0.25,0.8,0.46s0.49,0.49,0.72,0.84S175.21,393.52,175.5,394.03z"/>
		<path d="M202.77,418.18c-0.03,0.25-0.05,0.49-0.06,0.72s-0.02,0.46-0.02,0.69c0,1.19,0.16,2.2,0.48,3.03
			c0.32,0.83,0.77,1.51,1.36,2.03c0.59,0.52,1.3,0.9,2.13,1.14s1.76,0.35,2.8,0.35c1.03,0,2.02-0.14,2.95-0.43s1.75-0.72,2.45-1.29
			s1.27-1.29,1.69-2.14c0.42-0.85,0.63-1.84,0.63-2.96c0-0.71-0.1-1.36-0.29-1.95c-0.19-0.59-0.46-1.13-0.8-1.63
			c-0.34-0.5-0.74-0.95-1.21-1.37c-0.47-0.42-0.97-0.81-1.52-1.18s-1.13-0.73-1.73-1.07c-0.61-0.34-1.22-0.68-1.85-1.03
			c-0.66-0.36-1.31-0.72-1.97-1.1c-0.65-0.38-1.28-0.78-1.87-1.21c-0.6-0.43-1.15-0.89-1.66-1.39c-0.51-0.5-0.95-1.05-1.33-1.65
			s-0.66-1.28-0.88-2.01c-0.21-0.73-0.32-1.54-0.32-2.43c0-1.11,0.14-2.14,0.42-3.1s0.68-1.83,1.18-2.63
			c0.51-0.8,1.11-1.51,1.82-2.14c0.71-0.63,1.48-1.16,2.32-1.59s1.74-0.76,2.7-0.99s1.94-0.34,2.94-0.34c0.46,0,0.95,0.03,1.47,0.09
			c0.52,0.06,1.05,0.14,1.57,0.26c0.52,0.12,1.02,0.25,1.5,0.42c0.48,0.16,0.9,0.35,1.26,0.56s0.66,0.44,0.88,0.69
			c0.22,0.25,0.33,0.52,0.33,0.8c0,0.3-0.01,0.68-0.02,1.14c-0.01,0.46-0.02,0.97-0.04,1.55c-0.02,0.58-0.04,1.21-0.07,1.9
			s-0.07,1.41-0.11,2.17l-1.58-0.08c0.03-0.38,0.05-0.74,0.05-1.08c0-1.04-0.15-1.95-0.46-2.74c-0.31-0.79-0.74-1.45-1.3-1.98
			c-0.56-0.53-1.23-0.92-2.02-1.19c-0.79-0.27-1.67-0.4-2.63-0.4c-0.96,0-1.86,0.16-2.69,0.48c-0.83,0.32-1.55,0.76-2.16,1.33
			c-0.61,0.57-1.08,1.25-1.43,2.03c-0.35,0.78-0.52,1.65-0.52,2.59c0,0.76,0.1,1.46,0.3,2.08s0.47,1.19,0.82,1.72s0.77,1,1.25,1.43
			c0.48,0.43,1,0.83,1.57,1.22s1.16,0.74,1.79,1.09c0.63,0.34,1.26,0.69,1.9,1.03c0.66,0.35,1.31,0.7,1.97,1.07
			c0.65,0.37,1.28,0.76,1.87,1.17s1.15,0.86,1.65,1.35c0.51,0.49,0.95,1.02,1.32,1.62c0.37,0.59,0.66,1.24,0.88,1.95
			c0.21,0.71,0.32,1.5,0.32,2.37c0,1.43-0.2,2.7-0.59,3.81c-0.39,1.11-0.92,2.07-1.58,2.89c-0.66,0.82-1.41,1.51-2.27,2.08
			c-0.85,0.56-1.74,1.02-2.66,1.36c-0.92,0.34-1.84,0.59-2.76,0.74c-0.92,0.15-1.77,0.23-2.56,0.23c-1.04,0-2.01-0.07-2.92-0.21
			c-0.91-0.14-1.71-0.33-2.39-0.56c-0.69-0.23-1.22-0.49-1.62-0.79s-0.59-0.6-0.59-0.92c0-0.7,0.02-1.7,0.07-3.01
			c0.05-1.31,0.12-2.86,0.23-4.66L202.77,418.18z"/>
		<path d="M224.96,400.6l-1.55-0.05c-0.03-1.27-0.05-2.39-0.05-3.37c0-1.01,0.05-1.88,0.14-2.61c0.09-0.73,0.29-1.33,0.59-1.8
			s0.73-0.82,1.3-1.04s1.33-0.33,2.27-0.33c0.6,0,1.28,0.02,2.05,0.05s1.59,0.06,2.45,0.09c0.86,0.03,1.74,0.06,2.64,0.09
			c0.9,0.03,1.78,0.05,2.63,0.05c1.42,0,2.68,0,3.76-0.01c1.09,0,2.05-0.01,2.9-0.02s1.59-0.03,2.23-0.05s1.22-0.05,1.75-0.09
			c0.53-0.04,1.02-0.09,1.47-0.15c0.45-0.06,0.92-0.13,1.39-0.21c0.18,0.5,0.27,0.92,0.27,1.24c0,0.69-0.29,1.22-0.87,1.58
			c-0.58,0.37-1.44,0.55-2.58,0.55c-1.08,0-2.34-0.07-3.8-0.2s-3.1-0.26-4.93-0.38c-0.03,1.55-0.07,3.2-0.12,4.96
			c-0.05,1.76-0.1,3.57-0.15,5.45c-0.05,1.88-0.11,3.79-0.17,5.75c-0.06,1.96-0.12,3.92-0.18,5.88s-0.12,3.9-0.18,5.83
			c-0.06,1.92-0.11,3.78-0.16,5.58l-3.72,0.47l-0.28-0.03c0.08-2,0.16-3.91,0.24-5.75c0.07-1.83,0.14-3.64,0.2-5.4
			c0.06-1.77,0.12-3.53,0.17-5.29c0.05-1.76,0.09-3.57,0.13-5.43c0.03-1.86,0.06-3.8,0.08-5.81c0.02-2.01,0.03-4.15,0.03-6.42
			c-0.6-0.02-1.2-0.04-1.82-0.06c-0.62-0.02-1.24-0.02-1.88-0.02s-1.23,0.01-1.79,0.03c-0.55,0.02-1.06,0.09-1.52,0.22
			c-0.46,0.13-0.87,0.32-1.24,0.59c-0.37,0.27-0.67,0.64-0.93,1.13c-0.25,0.49-0.44,1.11-0.57,1.86c-0.13,0.75-0.2,1.67-0.2,2.76
			V400.6z"/>
		<path d="M252.56,418.87c-0.38,1.07-0.7,1.99-0.98,2.78s-0.52,1.48-0.73,2.06c-0.21,0.59-0.39,1.09-0.55,1.51
			c-0.16,0.42-0.3,0.81-0.44,1.15c-0.17,0.4-0.36,0.71-0.56,0.93c-0.21,0.22-0.43,0.38-0.67,0.48c-0.24,0.1-0.5,0.16-0.78,0.17
			c-0.28,0.02-0.58,0.02-0.89,0.02c-0.18,0-0.4,0-0.67-0.01s-0.51-0.01-0.73-0.02l-0.22-0.16c1.25-2.72,2.44-5.32,3.57-7.79
			c1.12-2.48,2.21-4.85,3.25-7.12c-0.22-0.34-0.33-0.63-0.33-0.86c0-0.42,0.33-0.63,1-0.64c1.91-4.2,3.62-7.91,5.11-11.11
			c1.49-3.2,2.81-5.88,3.95-8.04c0.1-0.2,0.24-0.36,0.41-0.49c0.17-0.13,0.35-0.23,0.55-0.31c0.2-0.07,0.41-0.13,0.63-0.16
			c0.22-0.03,0.43-0.05,0.64-0.05c0.3,0,0.6,0.03,0.89,0.08c0.29,0.05,0.61,0.15,0.94,0.3c0.66,3.63,1.26,6.89,1.81,9.79
			c0.55,2.9,1.06,5.49,1.53,7.75s0.92,4.25,1.33,5.94s0.82,3.14,1.21,4.34c0.39,1.21,0.77,2.2,1.16,2.99s0.79,1.4,1.2,1.85
			c0.41,0.45,0.85,0.76,1.31,0.94s0.96,0.27,1.5,0.27c0.36,0,0.72-0.04,1.08-0.13c0.37-0.08,0.77-0.2,1.21-0.36l0.44,1.29
			c-1.2,0.6-2.35,1.05-3.45,1.36s-2.07,0.47-2.92,0.47c-0.48,0-0.93-0.09-1.36-0.27c-0.42-0.18-0.83-0.48-1.22-0.92
			c-0.39-0.43-0.77-1.02-1.15-1.75s-0.74-1.65-1.12-2.76c-0.38-1.11-0.76-2.43-1.16-3.96c-0.4-1.53-0.82-3.31-1.25-5.34
			c-1.93,0.02-3.84,0.07-5.73,0.13c-1.89,0.07-3.84,0.16-5.86,0.27c-0.41,1.08-0.78,2.06-1.11,2.96S252.8,418.18,252.56,418.87z
			 M265.7,411.19c-0.22-1.04-0.46-2.18-0.71-3.44s-0.51-2.59-0.77-4c-0.26-1.41-0.53-2.87-0.8-4.4c-0.27-1.53-0.54-3.07-0.8-4.64
			h-0.09c-1.5,3.12-2.85,6.08-4.03,8.89c-1.18,2.81-2.23,5.4-3.15,7.76c1.8-0.04,3.54-0.08,5.22-0.1
			C262.26,411.23,263.97,411.21,265.7,411.19z"/>
		<path d="M289.61,394.03c0.48,0.86,1.03,1.81,1.64,2.86s1.26,2.16,1.95,3.32c0.69,1.17,1.41,2.37,2.16,3.62s1.51,2.49,2.27,3.75
			c0.77,1.25,1.53,2.49,2.28,3.72c0.75,1.22,1.48,2.4,2.19,3.52c0.71,1.12,1.37,2.18,2.01,3.16c0.63,0.98,1.21,1.86,1.72,2.63
			c0-2.8,0.01-5.35,0.02-7.65c0.01-2.3,0.03-4.38,0.06-6.23s0.07-3.49,0.11-4.93s0.1-2.7,0.17-3.78c0.07-1.08,0.15-2,0.24-2.76
			c0.09-0.76,0.19-1.38,0.31-1.87c0.09-0.42,0.23-0.77,0.4-1.04c0.17-0.28,0.37-0.5,0.6-0.67s0.47-0.28,0.74-0.35s0.55-0.1,0.84-0.1
			c0.7,0,1.43,0.15,2.18,0.46v0.16c-0.51,0.72-0.95,1.66-1.33,2.82s-0.69,2.45-0.95,3.87c-0.26,1.42-0.47,2.91-0.64,4.48
			c-0.16,1.57-0.29,3.12-0.38,4.67s-0.17,3.02-0.21,4.45s-0.09,2.69-0.12,3.81c-0.02,0.98-0.04,1.94-0.06,2.88
			c-0.02,0.94-0.04,1.87-0.06,2.81s-0.03,1.88-0.04,2.84c-0.01,0.96-0.02,1.94-0.02,2.96l-1.91,0.25l-0.28-0.03
			c-0.31-0.44-0.71-1.03-1.2-1.76c-0.49-0.74-1.03-1.58-1.64-2.53c-0.61-0.95-1.26-1.99-1.97-3.12c-0.71-1.13-1.44-2.31-2.2-3.53
			c-0.76-1.22-1.53-2.47-2.31-3.75s-1.56-2.54-2.33-3.79c-0.77-1.25-1.52-2.48-2.24-3.67c-0.73-1.19-1.41-2.31-2.05-3.36
			s-1.22-2.01-1.74-2.88c-0.52-0.87-0.97-1.6-1.33-2.21c-0.02,2.31-0.05,4.56-0.1,6.75c-0.05,2.19-0.11,4.29-0.18,6.31
			c-0.07,2.02-0.15,3.93-0.24,5.75c-0.09,1.81-0.19,3.5-0.29,5.06c-0.07,1.1-0.15,2.03-0.23,2.81c-0.08,0.77-0.17,1.42-0.28,1.94
			c-0.11,0.52-0.25,0.93-0.41,1.23c-0.16,0.3-0.36,0.53-0.6,0.68c-0.24,0.15-0.53,0.25-0.86,0.29c-0.33,0.04-0.73,0.06-1.19,0.06
			h-0.42c-0.08,0-0.19,0-0.31-0.01c-0.13-0.01-0.29-0.01-0.49-0.02l-0.22-0.16c0.45-1.01,0.85-2.15,1.2-3.4
			c0.35-1.25,0.66-2.58,0.92-3.99c0.26-1.41,0.49-2.86,0.68-4.36s0.35-3,0.48-4.51c0.13-1.5,0.23-2.99,0.31-4.45
			c0.08-1.46,0.14-2.85,0.18-4.16s0.07-2.54,0.08-3.67c0.01-1.13,0.02-2.11,0.02-2.95c0-0.45-0.03-0.83-0.1-1.15
			c-0.07-0.32-0.19-0.58-0.38-0.78c-0.18-0.2-0.43-0.35-0.74-0.45s-0.72-0.14-1.22-0.14c-0.36,0-0.75,0.02-1.2,0.06
			s-0.95,0.1-1.51,0.19l-0.17-1.38c0.88-0.2,1.67-0.38,2.38-0.53c0.71-0.16,1.35-0.29,1.93-0.39c0.58-0.1,1.1-0.19,1.56-0.24
			s0.89-0.09,1.26-0.09c0.39,0,0.72,0.05,1.01,0.14c0.29,0.09,0.55,0.25,0.8,0.46c0.25,0.21,0.49,0.49,0.72,0.84
			S289.33,393.52,289.61,394.03z"/>
		<path d="M315.46,400.6l-1.55-0.05c-0.03-1.27-0.05-2.39-0.05-3.37c0-1.01,0.05-1.88,0.14-2.61c0.09-0.73,0.29-1.33,0.59-1.8
			s0.73-0.82,1.3-1.04s1.33-0.33,2.27-0.33c0.6,0,1.28,0.02,2.05,0.05s1.59,0.06,2.45,0.09c0.86,0.03,1.74,0.06,2.64,0.09
			c0.9,0.03,1.78,0.05,2.63,0.05c1.42,0,2.68,0,3.76-0.01c1.09,0,2.05-0.01,2.9-0.02s1.59-0.03,2.23-0.05s1.22-0.05,1.75-0.09
			c0.53-0.04,1.02-0.09,1.47-0.15c0.45-0.06,0.92-0.13,1.39-0.21c0.18,0.5,0.27,0.92,0.27,1.24c0,0.69-0.29,1.22-0.87,1.58
			c-0.58,0.37-1.44,0.55-2.58,0.55c-1.08,0-2.34-0.07-3.8-0.2s-3.1-0.26-4.93-0.38c-0.03,1.55-0.07,3.2-0.12,4.96
			c-0.05,1.76-0.1,3.57-0.15,5.45c-0.05,1.88-0.11,3.79-0.17,5.75c-0.06,1.96-0.12,3.92-0.18,5.88s-0.12,3.9-0.18,5.83
			c-0.06,1.92-0.11,3.78-0.16,5.58l-3.72,0.47l-0.28-0.03c0.08-2,0.16-3.91,0.24-5.75c0.07-1.83,0.14-3.64,0.2-5.4
			c0.06-1.77,0.12-3.53,0.17-5.29c0.05-1.76,0.09-3.57,0.13-5.43c0.03-1.86,0.06-3.8,0.08-5.81c0.02-2.01,0.03-4.15,0.03-6.42
			c-0.6-0.02-1.2-0.04-1.82-0.06c-0.62-0.02-1.24-0.02-1.88-0.02s-1.23,0.01-1.79,0.03c-0.55,0.02-1.06,0.09-1.52,0.22
			c-0.46,0.13-0.87,0.32-1.24,0.59c-0.37,0.27-0.67,0.64-0.93,1.13c-0.25,0.49-0.44,1.11-0.57,1.86c-0.13,0.75-0.2,1.67-0.2,2.76
			V400.6z"/>
	</g>
	<g id="bowl">
		
			<ellipse id="black_bowl_1_" transform="matrix(0.8345 -0.551 0.551 0.8345 -76.3546 148.5194)" class="st2" cx="209.07" cy="201.37" rx="151.82" ry="151.77"/>
		
			<ellipse id="black_bowl" transform="matrix(0.8331 -0.5531 0.5531 0.8331 -76.3961 148.9528)" cx="208.66" cy="201.09" rx="146.92" ry="146.87"/>
	</g>
	<g id="noodles">
		<g>
			<path class="st3" d="M190.35,303.33c0,0,1.11-5.92-6.85-10.36c-7.96-4.44-2.04-12.59,0-13.7c2.04-1.11,6.21-4.63,6.9-9.99
				c0,0,0.87-3.52-7.83-9.25c-8.7-5.74,5.92-16.1,5.92-16.1s4.44-5.92-2.04-12.22c-7-5-8.33-10.18-0.56-15.73
				c7.77-5.55,3.52-12.96,2.41-13.14c-1.11-0.18-11.48-7.96-6.11-14.81c5.37-6.85,8.58-3.89,8.27-13.7c0,0-3.09-4.07-5.49-5.37
				c-2.41-1.3-6.85-7.4-1.48-12.4c5.37-5,10.29-7.96,7-13.88c-3.29-5.92-13.47-7.77-7.92-15.92c5.74-7.22,7.24-4.63,8.99-10.36
				c1.75-5.74-6.05-9.44-6.05-9.44s-7.2-6.29-3.31-8.33"/>
			<path class="st3" d="M178,303.33c0,0,1.11-5.92-6.85-10.36c-7.96-4.44-2.04-12.59,0-13.7c2.04-1.11,6.21-4.63,6.9-9.99
				c0,0,0.87-3.52-7.83-9.25c-8.7-5.74,5.92-16.1,5.92-16.1s4.44-5.92-2.04-12.22c-7-5-8.33-10.18-0.56-15.73
				c7.77-5.55,3.52-12.96,2.41-13.14c-1.11-0.18-11.48-7.96-6.11-14.81c5.37-6.85,8.58-3.89,8.27-13.7c0,0-3.09-4.07-5.49-5.37
				c-2.41-1.3-6.85-7.4-1.48-12.4c5.37-5,10.29-7.96,7-13.88c-3.29-5.92-13.47-7.77-7.92-15.92c5.74-7.22,7.24-4.63,8.99-10.36
				c1.75-5.74-6.05-9.44-6.05-9.44s-7.2-6.29-3.31-8.33"/>
			<path class="st3" d="M202.7,303.33c0,0,1.11-5.92-6.85-10.36c-7.96-4.44-2.04-12.59,0-13.7c2.04-1.11,6.21-4.63,6.9-9.99
				c0,0,0.87-3.52-7.83-9.25c-8.7-5.74,5.92-16.1,5.92-16.1s4.44-5.92-2.04-12.22c-7-5-8.33-10.18-0.56-15.73
				c7.77-5.55,3.52-12.96,2.41-13.14c-1.11-0.18-11.48-7.96-6.11-14.81c5.37-6.85,8.58-3.89,8.27-13.7c0,0-3.09-4.07-5.49-5.37
				c-2.41-1.3-6.85-7.4-1.48-12.4c5.37-5,10.29-7.96,7-13.88c-3.29-5.92-13.47-7.77-7.92-15.92c5.74-7.22,7.24-4.63,8.99-10.36
				c1.75-5.74-6.05-9.44-6.05-9.44s-7.19-6.29-3.31-8.33"/>
		</g>
		<g>
			<path class="st3" d="M129.65,303.33c0,0,1.11-5.92-6.85-10.36c-7.96-4.44-2.04-12.59,0-13.7c2.04-1.11,6.21-4.63,6.9-9.99
				c0,0,0.87-3.52-7.83-9.25c-8.7-5.74,5.92-16.1,5.92-16.1s4.44-5.92-2.04-12.22c-7-5-8.33-10.18-0.56-15.73
				c7.77-5.55,3.52-12.96,2.41-13.14c-1.11-0.18-11.47-7.96-6.11-14.81c5.37-6.85,8.58-3.89,8.27-13.7c0,0-3.09-4.07-5.49-5.37
				c-2.41-1.3-6.85-7.4-1.48-12.4c5.37-5,10.29-7.96,7-13.88c-3.29-5.92-13.47-7.77-7.92-15.92c5.74-7.22,7.24-4.63,8.99-10.36
				c1.75-5.74-6.05-9.44-6.05-9.44s-7.2-6.29-3.31-8.33"/>
			<path class="st3" d="M117.29,303.33c0,0,1.11-5.92-6.85-10.36c-7.96-4.44-2.04-12.59,0-13.7c2.04-1.11,6.21-4.63,6.9-9.99
				c0,0,0.87-3.52-7.83-9.25c-8.7-5.74,5.92-16.1,5.92-16.1s4.44-5.92-2.04-12.22c-7-5-8.33-10.18-0.56-15.73
				c7.77-5.55,3.52-12.96,2.41-13.14c-1.11-0.18-11.48-7.96-6.11-14.81c5.37-6.85,8.58-3.89,8.27-13.7c0,0-3.09-4.07-5.49-5.37
				c-2.41-1.3-6.85-7.4-1.48-12.4c5.37-5,10.29-7.96,7-13.88c-3.29-5.92-13.47-7.77-7.92-15.92c5.74-7.22,7.24-4.63,8.99-10.36
				c1.75-5.74-6.05-9.44-6.05-9.44s-7.19-6.29-3.31-8.33"/>
			<path class="st3" d="M142,303.33c0,0,1.11-5.92-6.85-10.36c-7.96-4.44-2.04-12.59,0-13.7c2.04-1.11,6.21-4.63,6.9-9.99
				c0,0,0.87-3.52-7.83-9.25c-8.7-5.74,5.92-16.1,5.92-16.1s4.44-5.92-2.04-12.22c-7-5-8.33-10.18-0.56-15.73
				c7.77-5.55,3.52-12.96,2.41-13.14c-1.11-0.18-11.48-7.96-6.11-14.81c5.37-6.85,8.58-3.89,8.27-13.7c0,0-3.09-4.07-5.49-5.37
				c-2.41-1.3-6.85-7.4-1.48-12.4c5.37-5,10.29-7.96,7-13.88c-3.29-5.92-13.47-7.77-7.92-15.92c5.74-7.22,7.24-4.63,8.99-10.36
				c1.75-5.74-6.05-9.44-6.05-9.44s-7.19-6.29-3.31-8.33"/>
		</g>
		<g>
			<path class="st3" d="M154.35,303.33c0,0,1.11-5.92-6.85-10.36c-7.96-4.44-2.04-12.59,0-13.7c2.04-1.11,6.21-4.63,6.9-9.99
				c0,0,0.87-3.52-7.83-9.25c-8.7-5.74,5.92-16.1,5.92-16.1s4.44-5.92-2.04-12.22c-7-5-8.33-10.18-0.55-15.73
				c7.77-5.55,3.52-12.96,2.41-13.14c-1.11-0.18-11.48-7.96-6.11-14.81c5.37-6.85,8.58-3.89,8.27-13.7c0,0-3.09-4.07-5.49-5.37
				c-2.41-1.3-6.85-7.4-1.48-12.4c5.37-5,10.29-7.96,7-13.88c-3.29-5.92-13.47-7.77-7.92-15.92c5.74-7.22,7.24-4.63,8.99-10.36
				c1.75-5.74-6.05-9.44-6.05-9.44s-7.19-6.29-3.31-8.33"/>
			<path class="st3" d="M142,303.33c0,0,1.11-5.92-6.85-10.36c-7.96-4.44-2.04-12.59,0-13.7c2.04-1.11,6.21-4.63,6.9-9.99
				c0,0,0.87-3.52-7.83-9.25c-8.7-5.74,5.92-16.1,5.92-16.1s4.44-5.92-2.04-12.22c-7-5-8.33-10.18-0.56-15.73
				c7.77-5.55,3.52-12.96,2.41-13.14c-1.11-0.18-11.48-7.96-6.11-14.81c5.37-6.85,8.58-3.89,8.27-13.7c0,0-3.09-4.07-5.49-5.37
				c-2.41-1.3-6.85-7.4-1.48-12.4c5.37-5,10.29-7.96,7-13.88c-3.29-5.92-13.47-7.77-7.92-15.92c5.74-7.22,7.24-4.63,8.99-10.36
				c1.75-5.74-6.05-9.44-6.05-9.44s-7.19-6.29-3.31-8.33"/>
			<path class="st3" d="M166.7,303.33c0,0,1.11-5.92-6.85-10.36c-7.96-4.44-2.04-12.59,0-13.7c2.04-1.11,6.21-4.63,6.9-9.99
				c0,0,0.87-3.52-7.83-9.25c-8.7-5.74,5.92-16.1,5.92-16.1s4.44-5.92-2.04-12.22c-7-5-8.33-10.18-0.55-15.73
				c7.77-5.55,3.52-12.96,2.41-13.14c-1.11-0.18-11.48-7.96-6.11-14.81c5.37-6.85,8.58-3.89,8.27-13.7c0,0-3.09-4.07-5.49-5.37
				c-2.41-1.3-6.85-7.4-1.48-12.4c5.37-5,10.29-7.96,7-13.88c-3.29-5.92-13.47-7.77-7.92-15.92c5.74-7.22,7.24-4.63,8.99-10.36
				c1.75-5.74-6.05-9.44-6.05-9.44s-7.19-6.29-3.31-8.33"/>
		</g>
		<g>
			<path class="st3" d="M225.87,303.33c0,0,1.11-5.92-6.85-10.36c-7.96-4.44-2.04-12.59,0-13.7c2.04-1.11,6.21-4.63,6.9-9.99
				c0,0,0.87-3.52-7.83-9.25c-8.7-5.74,5.92-16.1,5.92-16.1s4.44-5.92-2.04-12.22c-7-5-8.33-10.18-0.56-15.73
				c7.77-5.55,3.52-12.96,2.41-13.14c-1.11-0.18-11.47-7.96-6.11-14.81c5.37-6.85,8.58-3.89,8.27-13.7c0,0-3.09-4.07-5.49-5.37
				c-2.41-1.3-6.85-7.4-1.48-12.4c5.37-5,10.29-7.96,7-13.88c-3.29-5.92-13.47-7.77-7.92-15.92c5.74-7.22,7.24-4.63,8.99-10.36
				c1.75-5.74-6.05-9.44-6.05-9.44s-7.2-6.29-3.31-8.33"/>
			<path class="st3" d="M213.52,303.33c0,0,1.11-5.92-6.85-10.36c-7.96-4.44-2.04-12.59,0-13.7c2.04-1.11,6.21-4.63,6.9-9.99
				c0,0,0.87-3.52-7.83-9.25c-8.7-5.74,5.92-16.1,5.92-16.1s4.44-5.92-2.04-12.22c-7-5-8.33-10.18-0.55-15.73
				c7.77-5.55,3.52-12.96,2.41-13.14c-1.11-0.18-11.48-7.96-6.11-14.81c5.37-6.85,8.58-3.89,8.27-13.7c0,0-3.09-4.07-5.49-5.37
				c-2.41-1.3-6.85-7.4-1.48-12.4c5.37-5,10.29-7.96,7-13.88c-3.29-5.92-13.47-7.77-7.92-15.92c5.74-7.22,7.24-4.63,8.99-10.36
				c1.75-5.74-6.05-9.44-6.05-9.44s-7.19-6.29-3.31-8.33"/>
			<path class="st3" d="M238.22,303.33c0,0,1.11-5.92-6.85-10.36c-7.96-4.44-2.04-12.59,0-13.7c2.04-1.11,6.21-4.63,6.9-9.99
				c0,0,0.87-3.52-7.83-9.25c-8.7-5.74,5.92-16.1,5.92-16.1s4.44-5.92-2.04-12.22c-7-5-8.33-10.18-0.56-15.73
				c7.77-5.55,3.52-12.96,2.41-13.14c-1.11-0.18-11.48-7.96-6.11-14.81c5.37-6.85,8.58-3.89,8.27-13.7c0,0-3.09-4.07-5.49-5.37
				c-2.41-1.3-6.85-7.4-1.48-12.4c5.37-5,10.29-7.96,7-13.88c-3.29-5.92-13.47-7.77-7.92-15.92c5.74-7.22,7.24-4.63,8.99-10.36
				c1.75-5.74-6.05-9.44-6.05-9.44s-7.2-6.29-3.31-8.33"/>
		</g>
		<g>
			<path class="st3" d="M262.42,303.33c0,0,1.11-5.92-6.85-10.36c-7.96-4.44-2.04-12.59,0-13.7c2.04-1.11,6.21-4.63,6.9-9.99
				c0,0,0.87-3.52-7.83-9.25c-8.7-5.74,5.92-16.1,5.92-16.1s4.44-5.92-2.04-12.22c-7-5-8.33-10.18-0.56-15.73
				c7.77-5.55,3.52-12.96,2.41-13.14c-1.11-0.18-11.48-7.96-6.11-14.81c5.37-6.85,8.58-3.89,8.27-13.7c0,0-3.09-4.07-5.49-5.37
				c-2.41-1.3-6.85-7.4-1.48-12.4c5.37-5,10.29-7.96,7-13.88c-3.29-5.92-13.47-7.77-7.92-15.92c5.74-7.22,7.24-4.63,8.99-10.36
				c1.75-5.74-6.05-9.44-6.05-9.44s-7.2-6.29-3.31-8.33"/>
			<path class="st3" d="M250.07,303.33c0,0,1.11-5.92-6.85-10.36c-7.96-4.44-2.04-12.59,0-13.7c2.04-1.11,6.21-4.63,6.9-9.99
				c0,0,0.87-3.52-7.83-9.25c-8.7-5.74,5.92-16.1,5.92-16.1s4.44-5.92-2.04-12.22c-7-5-8.33-10.18-0.56-15.73
				c7.77-5.55,3.52-12.96,2.41-13.14c-1.11-0.18-11.48-7.96-6.11-14.81c5.37-6.85,8.58-3.89,8.27-13.7c0,0-3.09-4.07-5.49-5.37
				c-2.41-1.3-6.85-7.4-1.48-12.4c5.37-5,10.29-7.96,7-13.88c-3.29-5.92-13.47-7.77-7.92-15.92c5.74-7.22,7.24-4.63,8.99-10.36
				c1.75-5.74-6.05-9.44-6.05-9.44s-7.2-6.29-3.31-8.33"/>
			<path class="st3" d="M274.77,303.33c0,0,1.11-5.92-6.85-10.36c-7.96-4.44-2.04-12.59,0-13.7c2.04-1.11,6.21-4.63,6.9-9.99
				c0,0,0.87-3.52-7.83-9.25c-8.7-5.74,5.92-16.1,5.92-16.1s4.44-5.92-2.04-12.22c-7-5-8.33-10.18-0.56-15.73
				c7.77-5.55,3.52-12.96,2.41-13.14c-1.11-0.18-11.48-7.96-6.11-14.81c5.37-6.85,8.58-3.89,8.27-13.7c0,0-3.09-4.07-5.49-5.37
				c-2.41-1.3-6.85-7.4-1.48-12.4c5.37-5,10.29-7.96,7-13.88c-3.29-5.92-13.47-7.77-7.92-15.92c5.74-7.22,7.24-4.63,8.99-10.36
				c1.75-5.74-6.05-9.44-6.05-9.44s-7.19-6.29-3.31-8.33"/>
		</g>
		<g>
			<path class="st3" d="M297.39,303.33c0,0,1.11-5.92-6.85-10.36c-7.96-4.44-2.04-12.59,0-13.7c2.04-1.11,6.21-4.63,6.9-9.99
				c0,0,0.87-3.52-7.83-9.25c-8.7-5.74,5.92-16.1,5.92-16.1s4.44-5.92-2.04-12.22c-7-5-8.33-10.18-0.56-15.73
				c7.77-5.55,3.52-12.96,2.41-13.14c-1.11-0.18-11.48-7.96-6.11-14.81c5.37-6.85,8.58-3.89,8.27-13.7c0,0-3.09-4.07-5.49-5.37
				c-2.41-1.3-6.85-7.4-1.48-12.4c5.37-5,10.29-7.96,7-13.88c-3.29-5.92-13.47-7.77-7.92-15.92c5.74-7.22,7.24-4.63,8.99-10.36
				c1.75-5.74-6.05-9.44-6.05-9.44s-7.19-6.29-3.31-8.33"/>
			<path class="st3" d="M285.04,303.33c0,0,1.11-5.92-6.85-10.36c-7.96-4.44-2.04-12.59,0-13.7c2.04-1.11,6.21-4.63,6.9-9.99
				c0,0,0.87-3.52-7.83-9.25c-8.7-5.74,5.92-16.1,5.92-16.1s4.44-5.92-2.04-12.22c-7-5-8.33-10.18-0.56-15.73
				c7.77-5.55,3.52-12.96,2.41-13.14c-1.11-0.18-11.48-7.96-6.11-14.81c5.37-6.85,8.58-3.89,8.27-13.7c0,0-3.09-4.07-5.49-5.37
				c-2.41-1.3-6.85-7.4-1.48-12.4c5.37-5,10.29-7.96,7-13.88c-3.29-5.92-13.47-7.77-7.92-15.92c5.74-7.22,7.24-4.63,8.98-10.36
				c1.75-5.74-6.05-9.44-6.05-9.44s-7.2-6.29-3.31-8.33"/>
			<path class="st3" d="M309.74,303.33c0,0,1.11-5.92-6.85-10.36c-7.96-4.44-2.04-12.59,0-13.7c2.04-1.11,6.21-4.63,6.9-9.99
				c0,0,0.87-3.52-7.83-9.25c-8.7-5.74,5.92-16.1,5.92-16.1s4.44-5.92-2.04-12.22c-7-5-8.33-10.18-0.55-15.73
				c7.77-5.55,3.52-12.96,2.41-13.14c-1.11-0.18-11.48-7.96-6.11-14.81c5.37-6.85,8.58-3.89,8.27-13.7c0,0-3.09-4.07-5.49-5.37
				c-2.41-1.3-6.85-7.4-1.48-12.4c5.37-5,10.29-7.96,7-13.88c-3.29-5.92-13.47-7.77-7.92-15.92c5.74-7.22,7.24-4.63,8.99-10.36
				c1.75-5.74-6.05-9.44-6.05-9.44s-7.19-6.29-3.31-8.33"/>
		</g>
	</g>
	<g id="chopstick">
		<g>
			<path class="st1" d="M245.87,81.32l-82.31,254.95l12.39,3.91l88.17-295.11c0,0-2.93-5.68-5.84,3.02
				C255.37,56.79,245.87,81.32,245.87,81.32z"/>
			<path class="st4" d="M175.95,340.18l-12.01,42.09c0,0-9.64,2.71-13.26-4.38l12.87-41.6L175.95,340.18z"/>
		</g>
		<g>
			<path class="st1" d="M212.53,64.58l9.27,267.75l-12.98,0.37l-3.89-307.98c0,0,4.37-4.66,4.79,4.5S212.53,64.58,212.53,64.58z"/>
			<path class="st4" d="M208.81,332.69l0.01,43.77c0,0,8.53,5.25,13.95-0.58l-0.98-43.53L208.81,332.69z"/>
		</g>
	</g>
	<g id="_x35_M">
		<g>
			<path class="st1" d="M150.33,425.33c-1.34,0.58-2.57,1.07-3.7,1.49s-2.17,0.76-3.14,1.03c-0.97,0.27-1.87,0.47-2.71,0.6
				s-1.65,0.2-2.43,0.2c-1.06,0-1.99-0.2-2.79-0.6c-0.8-0.4-1.47-1.06-2-1.97c-0.53-0.91-0.93-2.11-1.19-3.6
				c-0.26-1.49-0.39-3.33-0.39-5.53v-2.46c0-1.15,0-2.49,0.01-4.01c0.01-1.52,0.02-3.13,0.04-4.83s0.04-3.44,0.07-5.21
				c0.03-1.77,0.06-3.48,0.1-5.12c0.04-1.65,0.07-3.19,0.11-4.62c0.04-1.43,0.07-2.65,0.11-3.66c0.09-2.18,0.2-4.35,0.32-6.52
				c0.12-2.17,0.28-4.29,0.49-6.38l-0.22-0.08c-0.32,0.84-0.7,1.79-1.14,2.86s-1.01,2.36-1.7,3.87c-1.64,3.61-3.31,7.35-5.01,11.22
				c-1.7,3.87-3.42,7.82-5.16,11.85c-1.74,4.03-3.49,8.11-5.26,12.26c-1.77,4.14-3.53,8.28-5.28,12.41l-1.37-0.06
				c-0.39-1.27-0.87-2.76-1.42-4.48c-0.56-1.72-1.17-3.58-1.84-5.58c-0.67-2-1.38-4.11-2.14-6.34c-0.75-2.22-1.52-4.48-2.3-6.76
				s-1.57-4.55-2.36-6.83s-1.55-4.46-2.29-6.56c-0.74-2.1-1.43-4.08-2.09-5.93c-0.66-1.85-1.25-3.5-1.77-4.96
				c-0.6-1.69-1.11-3.19-1.55-4.49c-0.44-1.3-0.81-2.46-1.13-3.46l-0.2,0.08c0,0.56,0,1.11,0.01,1.66c0.01,0.55,0.01,1.14,0.01,1.77
				v4.61c0,2.96-0.05,5.98-0.14,9.06s-0.21,6.11-0.36,9.1s-0.33,5.88-0.53,8.67c-0.21,2.79-0.42,5.37-0.64,7.73
				c-0.19,1.95-0.36,3.62-0.52,4.98s-0.33,2.52-0.53,3.45s-0.43,1.66-0.71,2.19s-0.63,0.94-1.05,1.21s-0.93,0.46-1.54,0.53
				c-0.6,0.07-1.33,0.11-2.16,0.11h-0.84c-0.17,0-0.37,0-0.61-0.01c-0.24-0.01-0.54-0.02-0.89-0.04l-0.39-0.28
				c0.87-1.8,1.65-3.82,2.33-6.04c0.68-2.22,1.27-4.58,1.79-7.08c0.51-2.49,0.95-5.08,1.33-7.75c0.37-2.67,0.68-5.34,0.94-8
				c0.25-2.66,0.46-5.29,0.61-7.87s0.27-5.04,0.35-7.37c0.07-2.33,0.13-4.48,0.15-6.45c0.03-1.97,0.04-3.69,0.04-5.16
				c0-0.95-0.07-1.73-0.2-2.35c-0.13-0.61-0.36-1.1-0.68-1.46c-0.33-0.36-0.77-0.61-1.34-0.75c-0.57-0.14-1.3-0.21-2.19-0.21
				c-0.61,0-1.32,0.04-2.12,0.13c-0.8,0.08-1.68,0.2-2.65,0.35l-0.31-2.46c3.41-0.78,6.21-1.36,8.4-1.75
				c2.2-0.38,3.95-0.57,5.25-0.57c0.67,0,1.25,0.06,1.73,0.18c0.48,0.12,0.91,0.33,1.27,0.61c0.36,0.29,0.68,0.67,0.96,1.14
				c0.28,0.47,0.55,1.07,0.81,1.77c0.99,2.75,2.03,5.69,3.13,8.79c1.1,3.11,2.22,6.28,3.36,9.52s2.29,6.48,3.43,9.73
				c1.14,3.25,2.25,6.4,3.31,9.45c0.41,1.21,0.79,2.31,1.13,3.31c0.34,1,0.66,1.92,0.95,2.76c0.29,0.85,0.56,1.66,0.81,2.43
				c0.25,0.77,0.49,1.54,0.71,2.3h0.2c0.3-0.8,0.6-1.59,0.92-2.36c0.32-0.77,0.65-1.57,1-2.4s0.74-1.72,1.16-2.67
				c0.42-0.95,0.89-2.02,1.41-3.21c1.3-2.98,2.66-6.07,4.06-9.27s2.85-6.48,4.33-9.83c1.48-3.35,2.98-6.75,4.51-10.19
				s3.06-6.9,4.61-10.36c0.17-0.37,0.4-0.68,0.68-0.92c0.29-0.24,0.6-0.43,0.95-0.57c0.34-0.14,0.7-0.24,1.07-0.29
				c0.37-0.06,0.72-0.08,1.03-0.08c0.54,0,1.13,0.07,1.77,0.21s1.26,0.34,1.86,0.6c-0.28,3.05-0.53,5.97-0.74,8.77
				c-0.21,2.79-0.4,5.51-0.54,8.15c-0.15,2.64-0.28,5.25-0.39,7.83c-0.11,2.58-0.2,5.18-0.25,7.8c-0.06,2.63-0.1,5.3-0.13,8.04
				c-0.03,2.74-0.04,5.59-0.04,8.57c0,1.97,0.08,3.66,0.25,5.05s0.46,2.54,0.88,3.42c0.42,0.88,0.98,1.53,1.69,1.94
				c0.71,0.41,1.59,0.61,2.65,0.61c0.39,0,0.77-0.01,1.13-0.03c0.36-0.02,0.74-0.06,1.13-0.13c0.39-0.06,0.82-0.16,1.3-0.29
				c0.47-0.13,1.02-0.3,1.63-0.5L150.33,425.33z"/>
		</g>
		<g>
			<rect x="15.2" y="319.38" class="st5" width="69.35" height="138.61"/>
			<path class="st1" d="M70.6,368.04c0.61,1.06,0.92,2.04,0.92,2.93c0,1.47-0.81,2.59-2.44,3.36c-1.63,0.77-3.89,1.16-6.8,1.16
				c-2.07,0-4.4-0.16-6.99-0.49s-5.48-0.8-8.64-1.44c-0.11,1.32-0.24,2.75-0.38,4.27c-0.14,1.53-0.3,3.07-0.49,4.62
				c-0.19,1.55-0.39,3.07-0.61,4.54c-0.22,1.47-0.47,2.8-0.75,3.99l0.11,0.06c2.07-0.95,4.05-1.65,5.96-2.11
				c1.91-0.46,3.76-0.68,5.57-0.68c2.4,0,4.61,0.39,6.63,1.16c2.02,0.77,3.75,1.87,5.21,3.29s2.59,3.15,3.41,5.17
				s1.23,4.27,1.23,6.74c0,1.9-0.24,3.82-0.71,5.76s-1.17,3.82-2.08,5.61c-0.91,1.8-2.04,3.48-3.39,5.07
				c-1.35,1.58-2.9,2.95-4.65,4.12c-1.75,1.16-3.7,2.08-5.85,2.76c-2.15,0.68-4.48,1.02-6.99,1.02c-0.76,0-1.6-0.06-2.51-0.17
				c-0.91-0.11-1.83-0.29-2.75-0.54s-1.81-0.58-2.68-0.98c-0.87-0.4-1.63-0.89-2.29-1.47c-0.66-0.58-1.19-1.25-1.59-2.01
				c-0.4-0.76-0.6-1.64-0.6-2.62c0-0.52,0.11-1.03,0.33-1.54c0.22-0.5,0.53-0.96,0.92-1.37c0.39-0.41,0.86-0.74,1.4-0.99
				c0.54-0.25,1.13-0.38,1.76-0.38c0.56,1.41,1.24,2.63,2.05,3.64c0.81,1.01,1.69,1.85,2.65,2.51c0.96,0.66,1.97,1.15,3.04,1.47
				c1.07,0.32,2.14,0.47,3.2,0.47c1.4,0,2.7-0.23,3.92-0.7c1.22-0.46,2.33-1.11,3.32-1.93c1-0.82,1.88-1.78,2.65-2.89
				c0.77-1.11,1.42-2.31,1.95-3.62c0.53-1.3,0.94-2.67,1.21-4.09c0.28-1.42,0.42-2.86,0.42-4.31c0-2.16-0.32-4.17-0.96-6.03
				c-0.64-1.86-1.55-3.48-2.72-4.86c-1.17-1.38-2.58-2.46-4.23-3.24c-1.65-0.78-3.49-1.17-5.51-1.17c-1.45,0-2.97,0.2-4.55,0.6
				c-1.58,0.4-3.28,1.05-5.08,1.94l-1.28-1.84c0.69-3.59,1.24-7.45,1.66-11.58c0.42-4.13,0.73-8.38,0.94-12.76
				c1.02,0.06,2,0.11,2.93,0.15s1.84,0.08,2.74,0.11c0.89,0.03,1.78,0.05,2.65,0.07s1.78,0.03,2.71,0.03c2.64,0,5.27-0.05,7.87-0.15
				C65.02,368.62,67.75,368.39,70.6,368.04z"/>
		</g>
	</g>
</g>
<g>
</g>
<g>
</g>
<g>
</g>
<g>
</g>
<g>
</g>
<g>
</g>
</svg>
