<?xml version="1.0" encoding="utf-8"?>
<!-- Generator: Adobe Illustrator 23.0.5, SVG Export Plug-In . SVG Version: 6.00 Build 0)  -->
<svg version="1.0" id="LOGO" xmlns="http://www.w3.org/2000/svg" xmlns:xlink="http://www.w3.org/1999/xlink" x="0px" y="0px"
	 viewBox="0 0 444.4 537.85" style="enable-background:new 0 0 444.4 537.85;" xml:space="preserve">
<style type="text/css">
	.st0{fill:none;stroke:#CCA939;stroke-width:2.9717;stroke-miterlimit:10;}
	.st1{fill:#ED1C24;}
	.st2{display:none;fill:#ED1C24;}
	.st3{fill:none;stroke:#CCA939;stroke-width:3.8278;stroke-miterlimit:10;}
	.st4{fill:#F8D60B;}
	.st5{fill:none;}
</style>
<g id="noodels">
	<g>
		<path d="M106.59,432.1c0.69,1.23,1.48,2.61,2.36,4.12c0.88,1.51,1.82,3.11,2.81,4.78c0.99,1.68,2.03,3.41,3.1,5.2
			c1.07,1.79,2.17,3.59,3.27,5.39c1.11,1.8,2.2,3.59,3.28,5.35c1.08,1.76,2.13,3.45,3.15,5.06c1.02,1.62,1.98,3.13,2.89,4.55
			c0.91,1.41,1.73,2.68,2.47,3.79c0-4.03,0.01-7.7,0.02-11.01c0.01-3.31,0.04-6.29,0.09-8.96c0.04-2.66,0.1-5.03,0.16-7.09
			c0.06-2.07,0.14-3.88,0.24-5.44c0.1-1.56,0.21-2.88,0.34-3.97c0.13-1.09,0.27-1.99,0.44-2.7c0.14-0.6,0.33-1.1,0.58-1.5
			s0.53-0.72,0.86-0.96c0.32-0.24,0.68-0.41,1.06-0.51s0.79-0.15,1.21-0.15c1.01,0,2.05,0.22,3.14,0.65v0.23
			c-0.74,1.04-1.37,2.39-1.91,4.06c-0.53,1.67-0.99,3.52-1.36,5.56c-0.38,2.04-0.68,4.18-0.91,6.44c-0.23,2.26-0.42,4.49-0.55,6.71
			c-0.14,2.22-0.24,4.35-0.3,6.4c-0.07,2.04-0.12,3.87-0.17,5.48c-0.03,1.41-0.06,2.79-0.09,4.14c-0.03,1.35-0.06,2.69-0.08,4.04
			s-0.04,2.71-0.06,4.08s-0.02,2.79-0.02,4.25l-2.75,0.36l-0.41-0.05c-0.45-0.63-1.03-1.48-1.73-2.54c-0.7-1.06-1.49-2.27-2.36-3.64
			c-0.87-1.37-1.82-2.86-2.83-4.49s-2.07-3.32-3.16-5.08c-1.09-1.76-2.2-3.56-3.33-5.39s-2.24-3.65-3.35-5.46
			c-1.11-1.8-2.18-3.56-3.23-5.28c-1.05-1.71-2.03-3.33-2.94-4.84c-0.92-1.51-1.75-2.89-2.5-4.14c-0.75-1.25-1.39-2.31-1.92-3.18
			c-0.03,3.32-0.08,6.56-0.15,9.71c-0.07,3.15-0.15,6.18-0.26,9.08c-0.11,2.9-0.22,5.66-0.35,8.27c-0.13,2.61-0.27,5.03-0.42,7.27
			c-0.11,1.58-0.21,2.92-0.33,4.04c-0.11,1.11-0.25,2.04-0.41,2.79c-0.16,0.75-0.35,1.33-0.59,1.77c-0.23,0.44-0.52,0.76-0.87,0.98
			c-0.35,0.22-0.76,0.36-1.24,0.42c-0.48,0.06-1.05,0.09-1.71,0.09h-0.61c-0.12,0-0.27,0-0.45-0.01c-0.18-0.01-0.41-0.02-0.7-0.03
			l-0.32-0.23c0.65-1.46,1.22-3.09,1.73-4.9c0.5-1.8,0.94-3.72,1.32-5.74c0.38-2.02,0.7-4.11,0.98-6.27
			c0.28-2.16,0.51-4.32,0.69-6.49c0.18-2.17,0.33-4.3,0.44-6.39s0.2-4.09,0.26-5.99c0.06-1.89,0.1-3.65,0.11-5.28
			c0.01-1.62,0.02-3.04,0.02-4.24c0-0.65-0.05-1.2-0.15-1.66c-0.1-0.46-0.28-0.83-0.54-1.13c-0.26-0.29-0.62-0.51-1.07-0.64
			c-0.45-0.13-1.04-0.2-1.76-0.2c-0.51,0-1.09,0.03-1.73,0.09c-0.64,0.06-1.36,0.15-2.18,0.27l-0.25-1.99
			c1.26-0.29,2.41-0.54,3.43-0.77c1.02-0.23,1.95-0.41,2.77-0.56s1.58-0.27,2.24-0.35c0.67-0.08,1.27-0.13,1.82-0.13
			c0.56,0,1.04,0.07,1.45,0.2c0.41,0.14,0.8,0.35,1.15,0.65c0.35,0.3,0.7,0.7,1.04,1.21S106.18,431.36,106.59,432.1z"/>
	</g>
	<g>
		<path d="M261.52,428.48c1.59-0.3,3.23-0.59,4.92-0.87c1.68-0.28,3.38-0.52,5.1-0.73c1.71-0.21,3.43-0.38,5.15-0.51
			s3.42-0.19,5.11-0.19c2.35,0,4.62,0.15,6.82,0.44s4.28,0.79,6.23,1.49c1.95,0.7,3.73,1.63,5.36,2.8c1.62,1.17,3.02,2.62,4.18,4.35
			c1.17,1.74,2.07,3.79,2.72,6.17c0.65,2.38,0.97,5.12,0.97,8.23c0,2.8-0.28,5.48-0.83,8.04c-0.56,2.56-1.37,4.95-2.44,7.16
			c-1.07,2.21-2.37,4.22-3.91,6.02c-1.54,1.8-3.3,3.35-5.28,4.64c-1.98,1.29-4.16,2.28-6.54,2.98s-4.94,1.05-7.68,1.05
			c-1.41,0-2.85-0.1-4.31-0.29s-2.98-0.5-4.56-0.9l-4.47,0.54l-0.41-0.05c0.11-0.96,0.22-2.24,0.34-3.82
			c0.12-1.59,0.24-3.43,0.35-5.54c0.11-2.1,0.22-4.45,0.33-7.03s0.2-5.35,0.28-8.32s0.15-6.1,0.19-9.4
			c0.05-3.29,0.07-6.71,0.07-10.26c0-0.72-0.03-1.35-0.09-1.89c-0.06-0.54-0.21-0.99-0.46-1.35c-0.25-0.36-0.62-0.63-1.11-0.81
			c-0.49-0.18-1.15-0.27-2-0.27c-0.99,0-2.26,0.11-3.81,0.34L261.52,428.48z M275.12,429.23c-0.02,0.75-0.04,1.87-0.07,3.36
			c-0.03,1.49-0.07,3.22-0.11,5.2s-0.1,4.14-0.17,6.47c-0.07,2.34-0.14,4.73-0.21,7.17c-0.08,2.44-0.16,4.88-0.25,7.3
			c-0.09,2.42-0.18,4.71-0.27,6.86c-0.09,2.15-0.18,4.1-0.28,5.85c-0.1,1.75-0.19,3.18-0.28,4.28c1.49,0.39,2.86,0.65,4.12,0.78
			s2.49,0.19,3.71,0.19c2.53,0,4.79-0.32,6.78-0.95c1.99-0.63,3.74-1.51,5.26-2.65s2.8-2.49,3.86-4.05
			c1.06-1.56,1.92-3.28,2.59-5.14s1.16-3.85,1.47-5.96c0.31-2.11,0.46-4.26,0.46-6.47c0-3.31-0.36-6.34-1.09-9.09
			s-1.92-5.12-3.56-7.11c-1.65-1.98-3.79-3.53-6.44-4.63c-2.65-1.11-5.88-1.66-9.7-1.66c-0.95,0-1.9,0.02-2.86,0.07
			C277.09,429.09,276.12,429.15,275.12,429.23z"/>
		<path d="M319.31,433.83c0-0.71-0.03-1.31-0.1-1.82s-0.22-0.91-0.46-1.23c-0.24-0.32-0.58-0.54-1.03-0.69
			c-0.44-0.14-1.03-0.21-1.77-0.21c-0.5,0-1.11,0.03-1.83,0.08s-1.47,0.14-2.26,0.26l-0.23-1.87c2.21-0.57,4.11-0.99,5.7-1.26
			c1.59-0.27,2.9-0.41,3.94-0.41c0.99,0,1.76,0.13,2.29,0.39c0.53,0.26,0.92,0.65,1.17,1.17s0.39,1.15,0.44,1.91
			c0.05,0.75,0.07,1.61,0.07,2.57c0,0.06-0.01,0.56-0.02,1.49c-0.02,0.93-0.04,2.17-0.08,3.71c-0.04,1.54-0.08,3.33-0.14,5.37
			c-0.05,2.04-0.11,4.2-0.18,6.47c-0.07,2.28-0.15,4.62-0.24,7.03c-0.09,2.41-0.19,4.74-0.3,7.01c-0.11,2.27-0.23,4.42-0.36,6.45
			s-0.27,3.8-0.42,5.32c1.44-0.21,2.8-0.36,4.08-0.46s2.47-0.15,3.56-0.15c1.55,0,3,0.04,4.34,0.12c1.35,0.08,2.67,0.12,3.98,0.12
			c0.92,0,1.73-0.13,2.45-0.41c0.71-0.27,1.33-0.75,1.84-1.42c0.51-0.68,0.94-1.59,1.27-2.75c0.34-1.16,0.6-2.63,0.78-4.42
			l1.96,0.16c-0.01,2.65-0.18,4.82-0.48,6.53c-0.31,1.71-0.75,3.05-1.32,4.04c-0.57,0.98-1.27,1.67-2.09,2.05
			c-0.82,0.38-1.76,0.58-2.81,0.58c-0.8,0-1.68-0.08-2.64-0.23c-0.96-0.15-2.01-0.32-3.15-0.51c-1.14-0.19-2.36-0.36-3.69-0.51
			c-1.32-0.15-2.75-0.23-4.29-0.23c-1.37,0-2.85,0.09-4.46,0.26s-3.25,0.46-4.93,0.87l-0.41-0.04c0.26-2.06,0.48-4.27,0.67-6.64
			c0.19-2.37,0.35-4.83,0.47-7.39c0.13-2.56,0.24-5.17,0.33-7.85c0.09-2.68,0.16-5.35,0.2-8.03s0.08-5.32,0.09-7.92
			C319.3,438.76,319.31,436.25,319.31,433.83z"/>
		<path d="M356.53,433.72c0-0.63-0.05-1.17-0.15-1.62c-0.1-0.45-0.28-0.82-0.54-1.09s-0.63-0.48-1.09-0.61
			c-0.47-0.13-1.07-0.19-1.8-0.19c-0.48,0-1.02,0.03-1.62,0.08s-1.29,0.12-2.05,0.21l-0.25-2.1c1.47-0.23,2.84-0.42,4.11-0.6
			c1.26-0.17,2.45-0.32,3.55-0.45c1.11-0.13,2.14-0.22,3.1-0.28c0.96-0.06,1.87-0.09,2.73-0.09c2.38,0,4.63-0.02,6.76-0.06
			c2.13-0.04,4.02-0.08,5.66-0.11s3-0.08,4.06-0.11c1.06-0.04,1.71-0.06,1.95-0.06c0.69,0,1.22,0.16,1.59,0.48
			c0.37,0.32,0.55,0.82,0.55,1.5c0,0.27-0.03,0.8-0.08,1.58c-0.05,0.78-0.12,1.68-0.2,2.7c-0.08,1.01-0.18,2.09-0.28,3.21
			c-0.11,1.13-0.22,2.18-0.34,3.16l-2.17-0.07c0.03-0.57,0.05-1.11,0.07-1.6c0.01-0.5,0.02-0.96,0.02-1.4
			c0-1.26-0.08-2.29-0.23-3.08c-0.15-0.79-0.42-1.41-0.82-1.86s-0.94-0.76-1.64-0.92s-1.57-0.26-2.64-0.27
			c-1.49-0.02-2.8-0.03-3.92-0.03c-1.13-0.01-2.21-0.01-3.25-0.01h-1.2c-0.57,0-1.15,0-1.75,0.01c-0.59,0.01-1.31,0.03-2.15,0.06
			c-0.03,1.25-0.06,2.64-0.1,4.18c-0.04,1.54-0.08,3.19-0.12,4.95c-0.04,1.76-0.09,3.62-0.15,5.57s-0.11,3.97-0.17,6.05
			c1.94,0.09,3.66,0.15,5.17,0.19c1.5,0.04,2.89,0.06,4.17,0.06c1.55,0,2.92-0.05,4.12-0.15s2.33-0.25,3.39-0.46
			c0.24,0.66,0.36,1.26,0.36,1.78c0,0.44-0.14,0.8-0.41,1.11s-0.65,0.54-1.15,0.73c-0.5,0.19-1.1,0.32-1.8,0.41
			c-0.71,0.08-1.5,0.12-2.37,0.12c-1.55,0-3.3-0.09-5.27-0.26c-1.96-0.17-4.06-0.39-6.3-0.64c-0.03,0.87-0.07,1.92-0.11,3.15
			c-0.05,1.23-0.1,2.53-0.16,3.91c-0.06,1.38-0.13,2.8-0.21,4.25c-0.08,1.45-0.17,2.84-0.25,4.17c-0.08,1.33-0.17,2.55-0.27,3.65
			c-0.1,1.1-0.2,2.01-0.3,2.72c1.46-0.21,2.88-0.36,4.26-0.46s2.64-0.15,3.77-0.15c1.58,0,3.06,0.04,4.43,0.12
			c1.38,0.08,2.74,0.12,4.09,0.12c0.9,0,1.7-0.12,2.38-0.37c0.68-0.25,1.28-0.69,1.79-1.33c0.51-0.64,0.94-1.5,1.27-2.58
			c0.34-1.08,0.61-2.46,0.8-4.13l2.03,0.11c-0.04,2.53-0.23,4.61-0.54,6.25c-0.32,1.64-0.76,2.93-1.32,3.88
			c-0.56,0.95-1.25,1.61-2.06,1.97c-0.81,0.37-1.73,0.55-2.75,0.55c-0.81,0-1.71-0.08-2.68-0.23c-0.98-0.15-2.04-0.32-3.2-0.51
			c-1.16-0.19-2.41-0.36-3.76-0.51s-2.79-0.23-4.34-0.23c-1.37,0-2.88,0.09-4.52,0.26c-1.65,0.17-3.33,0.46-5.06,0.87l-0.41-0.04
			c0.23-1.5,0.42-3.32,0.6-5.46s0.33-4.47,0.46-7c0.13-2.53,0.25-5.21,0.34-8.02c0.09-2.81,0.17-5.65,0.23-8.52
			c0.06-2.86,0.1-5.7,0.12-8.5S356.53,436.23,356.53,433.72z"/>
		<path d="M391.49,465.28c-0.04,0.36-0.08,0.71-0.09,1.04c-0.02,0.33-0.02,0.66-0.02,0.99c0,1.71,0.23,3.17,0.69,4.36
			c0.46,1.2,1.11,2.17,1.96,2.92s1.87,1.3,3.07,1.63c1.2,0.34,2.54,0.51,4.03,0.51c1.49,0,2.9-0.21,4.24-0.62
			c1.34-0.41,2.52-1.03,3.53-1.86c1.01-0.83,1.82-1.85,2.42-3.08c0.6-1.23,0.9-2.64,0.9-4.25c0-1.02-0.14-1.96-0.42-2.81
			s-0.66-1.63-1.15-2.35c-0.49-0.71-1.07-1.37-1.74-1.97s-1.4-1.17-2.19-1.7c-0.79-0.53-1.62-1.04-2.49-1.53
			c-0.87-0.49-1.76-0.98-2.66-1.48c-0.95-0.51-1.89-1.04-2.83-1.58c-0.94-0.54-1.84-1.12-2.7-1.74c-0.86-0.62-1.65-1.28-2.39-2
			c-0.74-0.71-1.37-1.51-1.91-2.38c-0.53-0.87-0.96-1.83-1.26-2.89c-0.31-1.05-0.46-2.22-0.46-3.5c0-1.59,0.2-3.08,0.61-4.46
			c0.41-1.38,0.97-2.64,1.7-3.79s1.6-2.18,2.62-3.08c1.01-0.9,2.13-1.67,3.34-2.29c1.21-0.62,2.5-1.1,3.88-1.42s2.79-0.48,4.23-0.48
			c0.66,0,1.37,0.04,2.12,0.12c0.75,0.08,1.5,0.21,2.26,0.37c0.75,0.17,1.47,0.36,2.15,0.6c0.68,0.23,1.29,0.5,1.82,0.8
			s0.95,0.63,1.26,0.99c0.32,0.36,0.47,0.74,0.47,1.15c0,0.44-0.01,0.98-0.02,1.64c-0.02,0.65-0.03,1.4-0.06,2.23
			c-0.02,0.83-0.06,1.74-0.1,2.73c-0.04,0.98-0.1,2.03-0.16,3.12l-2.28-0.11c0.05-0.54,0.07-1.06,0.07-1.56
			c0-1.49-0.22-2.8-0.67-3.94s-1.07-2.08-1.87-2.84c-0.8-0.76-1.77-1.33-2.91-1.71c-1.14-0.38-2.39-0.58-3.78-0.58
			s-2.67,0.23-3.87,0.69c-1.2,0.46-2.23,1.1-3.1,1.92c-0.87,0.82-1.56,1.79-2.05,2.92c-0.5,1.13-0.75,2.37-0.75,3.72
			c0,1.1,0.14,2.09,0.43,2.99c0.29,0.89,0.68,1.72,1.18,2.47s1.1,1.44,1.79,2.05c0.69,0.62,1.44,1.2,2.26,1.75
			c0.81,0.55,1.67,1.07,2.57,1.57c0.9,0.5,1.81,0.99,2.73,1.49c0.95,0.5,1.89,1.01,2.83,1.53c0.94,0.53,1.84,1.09,2.7,1.68
			c0.86,0.59,1.65,1.24,2.38,1.94c0.73,0.7,1.36,1.47,1.89,2.32c0.53,0.85,0.96,1.79,1.26,2.81c0.31,1.02,0.46,2.16,0.46,3.41
			c0,2.06-0.28,3.89-0.85,5.48c-0.56,1.59-1.32,2.98-2.27,4.16s-2.03,2.18-3.26,2.99c-1.23,0.81-2.5,1.47-3.82,1.96
			s-2.65,0.85-3.97,1.07s-2.55,0.33-3.68,0.33c-1.49,0-2.89-0.1-4.2-0.3c-1.31-0.2-2.46-0.47-3.44-0.8
			c-0.99-0.33-1.76-0.71-2.32-1.14c-0.56-0.43-0.85-0.87-0.85-1.32c0-1.01,0.03-2.45,0.1-4.33c0.07-1.88,0.18-4.11,0.33-6.7
			L391.49,465.28z"/>
	</g>
	<g>
		<circle class="st0" cx="228.32" cy="452.54" r="8.02"/>
		<path class="st0" d="M181.39,452.54c0,4.43-3.59,8.02-8.02,8.02c-4.43,0-8.02-3.59-8.02-8.02c0-4.43,3.59-8.02,8.02-8.02
			C177.8,444.52,181.39,448.11,181.39,452.54z"/>
		<circle class="st0" cx="228.32" cy="452.54" r="21.4"/>
		<path class="st0" d="M261.87,453.06c0,18.53-15.02,33.55-33.55,33.55c-18.53,0-33.55-15.02-33.55-33.55
			c0-18.53,15.02-33.55,33.55-33.55C246.85,419.52,261.87,434.54,261.87,453.06z"/>
		<path class="st0" d="M194.78,452.54c0,11.82-9.58,21.4-21.4,21.4c-11.82,0-21.4-9.58-21.4-21.4c0-11.82,9.58-21.4,21.4-21.4
			C185.19,431.14,194.78,440.72,194.78,452.54z"/>
		<path class="st0" d="M206.92,453.06c0,18.53-15.02,33.55-33.55,33.55c-18.53,0-33.55-15.02-33.55-33.55
			c0-18.53,15.02-33.55,33.55-33.55C191.9,419.52,206.92,434.54,206.92,453.06z"/>
	</g>
</g>
<g>
	<path class="st1" d="M145.84,379.36c0-0.5-0.02-0.92-0.07-1.28c-0.05-0.35-0.16-0.64-0.33-0.87c-0.17-0.22-0.41-0.38-0.72-0.48
		c-0.31-0.1-0.73-0.15-1.25-0.15c-0.35,0-0.78,0.02-1.29,0.06s-1.04,0.1-1.59,0.18l-0.16-1.32c1.56-0.4,2.89-0.7,4.01-0.89
		c1.12-0.19,2.04-0.29,2.77-0.29c0.7,0,1.24,0.09,1.61,0.28c0.38,0.19,0.65,0.46,0.83,0.83c0.17,0.37,0.28,0.81,0.31,1.34
		s0.05,1.13,0.05,1.81c0,0.23-0.01,0.85-0.04,1.87c-0.03,1.01-0.06,2.31-0.11,3.89c-0.05,1.58-0.1,3.4-0.17,5.46
		s-0.13,4.24-0.2,6.55c-0.07,2.31-0.14,4.71-0.21,7.17c-0.07,2.47-0.15,4.91-0.22,7.32l-3.77,0.48l-0.29-0.03
		c0.13-3.04,0.24-5.92,0.34-8.63c0.1-2.72,0.19-5.36,0.26-7.93s0.13-5.11,0.17-7.63C145.82,384.59,145.84,382.01,145.84,379.36z"/>
	<path class="st1" d="M166.26,377.04c0.49,0.87,1.04,1.83,1.66,2.9c0.62,1.06,1.28,2.19,1.98,3.37c0.7,1.18,1.43,2.4,2.18,3.66
		c0.76,1.26,1.53,2.53,2.3,3.8c0.78,1.27,1.55,2.53,2.31,3.77s1.5,2.43,2.22,3.57s1.39,2.21,2.03,3.2s1.22,1.88,1.74,2.67
		c0-2.84,0.01-5.42,0.02-7.75c0.01-2.33,0.03-4.43,0.06-6.31c0.03-1.88,0.07-3.54,0.11-5c0.04-1.46,0.1-2.73,0.17-3.83
		c0.07-1.1,0.15-2.03,0.24-2.8c0.09-0.77,0.19-1.4,0.31-1.9c0.1-0.42,0.23-0.78,0.4-1.06s0.38-0.51,0.6-0.68
		c0.23-0.17,0.48-0.29,0.75-0.36c0.27-0.07,0.55-0.1,0.85-0.1c0.71,0,1.45,0.15,2.21,0.46v0.16c-0.52,0.73-0.97,1.68-1.34,2.86
		c-0.38,1.18-0.7,2.48-0.96,3.92c-0.26,1.44-0.48,2.95-0.64,4.54c-0.16,1.59-0.29,3.16-0.39,4.73c-0.1,1.56-0.17,3.06-0.21,4.5
		c-0.05,1.44-0.09,2.73-0.12,3.86c-0.02,1-0.04,1.97-0.06,2.92c-0.02,0.95-0.04,1.9-0.06,2.84c-0.02,0.95-0.03,1.91-0.04,2.88
		c-0.01,0.97-0.02,1.97-0.02,3l-1.94,0.25l-0.29-0.03c-0.32-0.45-0.72-1.04-1.22-1.79c-0.49-0.75-1.05-1.6-1.66-2.57
		c-0.61-0.96-1.28-2.02-1.99-3.16s-1.46-2.33-2.22-3.57c-0.77-1.24-1.55-2.5-2.34-3.8s-1.58-2.57-2.36-3.84
		c-0.78-1.27-1.54-2.51-2.27-3.72c-0.74-1.21-1.43-2.34-2.07-3.41c-0.65-1.06-1.23-2.04-1.76-2.92c-0.53-0.88-0.98-1.63-1.35-2.24
		c-0.02,2.34-0.06,4.62-0.1,6.84s-0.11,4.35-0.18,6.39c-0.07,2.04-0.16,3.99-0.25,5.82c-0.09,1.84-0.19,3.55-0.29,5.12
		c-0.07,1.11-0.15,2.06-0.23,2.84c-0.08,0.78-0.17,1.44-0.29,1.96c-0.11,0.52-0.25,0.94-0.41,1.25c-0.16,0.31-0.37,0.54-0.61,0.69
		c-0.24,0.15-0.54,0.25-0.87,0.29s-0.74,0.06-1.21,0.06h-0.43c-0.08,0-0.19,0-0.32-0.01c-0.13,0-0.29-0.01-0.49-0.02l-0.22-0.16
		c0.46-1.03,0.86-2.18,1.22-3.45c0.35-1.27,0.66-2.62,0.93-4.04c0.26-1.42,0.5-2.9,0.69-4.42c0.2-1.52,0.36-3.04,0.48-4.57
		s0.23-3.03,0.31-4.5c0.08-1.48,0.14-2.88,0.18-4.22c0.04-1.33,0.07-2.57,0.08-3.72c0.01-1.14,0.02-2.14,0.02-2.99
		c0-0.46-0.03-0.84-0.1-1.17s-0.2-0.59-0.38-0.79c-0.19-0.21-0.44-0.36-0.75-0.45s-0.73-0.14-1.24-0.14c-0.36,0-0.77,0.02-1.22,0.06
		s-0.96,0.11-1.53,0.19l-0.17-1.4c0.89-0.2,1.69-0.38,2.41-0.54c0.72-0.16,1.37-0.29,1.95-0.4c0.58-0.11,1.11-0.19,1.58-0.25
		c0.47-0.06,0.9-0.09,1.28-0.09c0.39,0,0.73,0.05,1.02,0.14c0.29,0.1,0.56,0.25,0.81,0.46c0.25,0.21,0.49,0.5,0.73,0.85
		C165.71,376.09,165.98,376.53,166.26,377.04z"/>
	<path d="M193.9,401.51c-0.03,0.25-0.05,0.5-0.06,0.73c-0.01,0.23-0.02,0.47-0.02,0.7c0,1.21,0.16,2.23,0.48,3.07
		c0.32,0.84,0.78,1.53,1.38,2.06c0.6,0.53,1.32,0.91,2.16,1.15c0.84,0.24,1.79,0.36,2.84,0.36c1.05,0,2.04-0.15,2.99-0.44
		c0.94-0.29,1.77-0.73,2.49-1.31c0.71-0.58,1.28-1.3,1.71-2.17c0.42-0.86,0.64-1.86,0.64-2.99c0-0.72-0.1-1.38-0.29-1.98
		c-0.2-0.6-0.47-1.15-0.81-1.65s-0.75-0.97-1.22-1.39c-0.47-0.42-0.98-0.82-1.54-1.2s-1.14-0.74-1.76-1.08
		c-0.61-0.34-1.24-0.69-1.87-1.04c-0.67-0.36-1.33-0.73-1.99-1.11c-0.66-0.38-1.29-0.79-1.9-1.22c-0.6-0.43-1.17-0.9-1.68-1.41
		s-0.97-1.06-1.34-1.68s-0.67-1.29-0.89-2.03c-0.22-0.74-0.33-1.56-0.33-2.46c0-1.12,0.14-2.17,0.43-3.14
		c0.29-0.97,0.69-1.86,1.2-2.67s1.13-1.53,1.84-2.17c0.71-0.63,1.5-1.17,2.35-1.61c0.85-0.44,1.76-0.77,2.73-1
		c0.97-0.23,1.96-0.34,2.98-0.34c0.47,0,0.96,0.03,1.49,0.09c0.53,0.06,1.06,0.15,1.59,0.26c0.53,0.12,1.04,0.26,1.52,0.42
		c0.48,0.16,0.91,0.35,1.28,0.56c0.37,0.21,0.67,0.45,0.89,0.7c0.22,0.25,0.33,0.52,0.33,0.81c0,0.31-0.01,0.69-0.02,1.15
		c-0.01,0.46-0.02,0.99-0.04,1.57c-0.02,0.59-0.04,1.23-0.07,1.92s-0.07,1.43-0.11,2.2l-1.6-0.08c0.03-0.38,0.05-0.75,0.05-1.1
		c0-1.05-0.16-1.97-0.47-2.77c-0.31-0.8-0.75-1.47-1.32-2c-0.57-0.54-1.25-0.94-2.05-1.21c-0.8-0.27-1.69-0.41-2.66-0.41
		c-0.97,0-1.88,0.16-2.72,0.49c-0.84,0.32-1.57,0.77-2.18,1.35c-0.61,0.58-1.1,1.26-1.45,2.06c-0.35,0.79-0.52,1.67-0.52,2.62
		c0,0.77,0.1,1.48,0.3,2.11s0.48,1.21,0.83,1.74c0.35,0.53,0.78,1.01,1.26,1.45c0.49,0.43,1.02,0.84,1.59,1.23
		c0.57,0.39,1.18,0.75,1.81,1.1c0.64,0.35,1.28,0.7,1.92,1.05c0.67,0.35,1.33,0.71,1.99,1.08c0.66,0.37,1.29,0.77,1.9,1.18
		c0.6,0.42,1.16,0.87,1.68,1.37s0.96,1.04,1.33,1.64c0.38,0.6,0.67,1.26,0.89,1.98c0.22,0.72,0.33,1.52,0.33,2.4
		c0,1.45-0.2,2.74-0.6,3.86c-0.4,1.12-0.93,2.1-1.6,2.93c-0.67,0.83-1.43,1.53-2.3,2.11c-0.86,0.57-1.76,1.03-2.69,1.38
		s-1.86,0.6-2.8,0.75c-0.93,0.15-1.8,0.23-2.59,0.23c-1.05,0-2.03-0.07-2.95-0.21c-0.92-0.14-1.73-0.33-2.42-0.56
		c-0.69-0.23-1.24-0.5-1.64-0.8c-0.4-0.3-0.6-0.61-0.6-0.93c0-0.71,0.02-1.73,0.07-3.05c0.05-1.32,0.12-2.9,0.23-4.72L193.9,401.51z
		"/>
	<path d="M216.37,383.7l-1.57-0.05c-0.03-1.28-0.05-2.42-0.05-3.42c0-1.03,0.05-1.91,0.14-2.64s0.29-1.34,0.6-1.82
		c0.3-0.48,0.74-0.83,1.32-1.05c0.58-0.22,1.34-0.33,2.3-0.33c0.6,0,1.3,0.02,2.08,0.05c0.78,0.03,1.61,0.06,2.48,0.09
		c0.87,0.03,1.76,0.06,2.68,0.1c0.92,0.03,1.8,0.05,2.66,0.05c1.44,0,2.71,0,3.81-0.01c1.1,0,2.08-0.01,2.94-0.02
		c0.86-0.01,1.61-0.03,2.26-0.05c0.64-0.02,1.24-0.05,1.77-0.09c0.53-0.04,1.03-0.09,1.49-0.15c0.46-0.06,0.93-0.13,1.41-0.21
		c0.18,0.51,0.27,0.93,0.27,1.26c0,0.7-0.29,1.23-0.88,1.6s-1.46,0.56-2.61,0.56c-1.09,0-2.38-0.07-3.85-0.2
		c-1.48-0.13-3.14-0.26-5-0.39c-0.03,1.57-0.07,3.24-0.12,5.02c-0.05,1.78-0.1,3.62-0.15,5.52s-0.11,3.84-0.17,5.83
		c-0.06,1.99-0.12,3.97-0.18,5.96c-0.06,1.99-0.13,3.95-0.18,5.9c-0.06,1.95-0.11,3.83-0.17,5.66l-3.77,0.48l-0.29-0.03
		c0.08-2.02,0.16-3.96,0.24-5.82c0.07-1.86,0.14-3.68,0.21-5.47c0.06-1.79,0.12-3.58,0.17-5.36c0.05-1.78,0.1-3.62,0.13-5.5
		c0.03-1.89,0.06-3.85,0.08-5.89c0.02-2.04,0.03-4.21,0.03-6.51c-0.6-0.02-1.22-0.04-1.84-0.05c-0.63-0.02-1.26-0.02-1.91-0.02
		c-0.64,0-1.25,0.01-1.81,0.03s-1.07,0.09-1.54,0.22c-0.47,0.13-0.88,0.33-1.25,0.6c-0.37,0.27-0.68,0.65-0.94,1.14
		c-0.25,0.49-0.45,1.12-0.58,1.88c-0.13,0.76-0.2,1.69-0.2,2.8V383.7z"/>
	<path d="M244.34,402.21c-0.38,1.08-0.71,2.02-0.99,2.82c-0.28,0.8-0.53,1.5-0.74,2.09c-0.21,0.59-0.4,1.1-0.56,1.53
		s-0.31,0.82-0.45,1.17c-0.17,0.4-0.36,0.71-0.57,0.94c-0.21,0.22-0.44,0.38-0.68,0.49c-0.24,0.1-0.51,0.16-0.79,0.17
		c-0.29,0.02-0.59,0.02-0.91,0.02c-0.18,0-0.4,0-0.67-0.01c-0.27-0.01-0.52-0.01-0.74-0.02l-0.22-0.16c1.27-2.75,2.48-5.39,3.61-7.9
		c1.14-2.51,2.24-4.91,3.3-7.21c-0.22-0.35-0.33-0.64-0.33-0.87c0-0.42,0.34-0.64,1.02-0.65c1.94-4.26,3.66-8.01,5.18-11.26
		s2.85-5.96,4-8.14c0.11-0.2,0.24-0.37,0.41-0.5c0.17-0.13,0.35-0.24,0.56-0.31s0.41-0.13,0.64-0.16c0.22-0.03,0.44-0.05,0.65-0.05
		c0.31,0,0.61,0.03,0.91,0.08c0.3,0.05,0.61,0.15,0.95,0.3c0.67,3.68,1.28,6.98,1.83,9.92c0.56,2.94,1.07,5.56,1.55,7.86
		c0.48,2.3,0.93,4.3,1.35,6.01c0.42,1.71,0.83,3.18,1.22,4.4c0.39,1.22,0.78,2.23,1.18,3.03c0.39,0.79,0.8,1.42,1.21,1.87
		c0.42,0.46,0.86,0.77,1.33,0.95c0.47,0.18,0.97,0.27,1.52,0.27c0.36,0,0.73-0.04,1.1-0.13c0.37-0.08,0.78-0.21,1.22-0.37l0.45,1.3
		c-1.22,0.6-2.38,1.06-3.5,1.38s-2.1,0.48-2.96,0.48c-0.49,0-0.95-0.09-1.37-0.27c-0.43-0.18-0.84-0.49-1.24-0.93
		s-0.78-1.03-1.16-1.77s-0.75-1.67-1.14-2.8c-0.38-1.12-0.77-2.46-1.18-4.01c-0.4-1.55-0.83-3.35-1.27-5.41
		c-1.96,0.02-3.89,0.07-5.81,0.13c-1.91,0.07-3.89,0.16-5.93,0.28c-0.41,1.09-0.79,2.09-1.12,3
		C244.87,400.71,244.58,401.51,244.34,402.21z M257.65,394.42c-0.22-1.05-0.46-2.21-0.71-3.49s-0.51-2.63-0.78-4.05
		c-0.26-1.42-0.54-2.91-0.81-4.46c-0.28-1.55-0.55-3.11-0.81-4.7h-0.1c-1.53,3.16-2.89,6.16-4.08,9.01
		c-1.2,2.85-2.26,5.47-3.19,7.86c1.82-0.04,3.58-0.08,5.29-0.1S255.9,394.45,257.65,394.42z"/>
	<path d="M281.87,377.04c0.49,0.87,1.04,1.83,1.66,2.9c0.62,1.06,1.28,2.19,1.98,3.37c0.7,1.18,1.43,2.4,2.18,3.66
		c0.76,1.26,1.52,2.53,2.3,3.8c0.78,1.27,1.55,2.53,2.31,3.77c0.76,1.24,1.5,2.43,2.22,3.57s1.39,2.21,2.03,3.2s1.22,1.88,1.74,2.67
		c0-2.84,0.01-5.42,0.02-7.75c0.01-2.33,0.03-4.43,0.06-6.31c0.03-1.88,0.07-3.54,0.11-5c0.04-1.46,0.1-2.73,0.17-3.83
		c0.07-1.1,0.15-2.03,0.24-2.8c0.09-0.77,0.19-1.4,0.31-1.9c0.09-0.42,0.23-0.78,0.41-1.06s0.38-0.51,0.6-0.68
		c0.23-0.17,0.48-0.29,0.75-0.36c0.27-0.07,0.55-0.1,0.85-0.1c0.71,0,1.45,0.15,2.21,0.46v0.16c-0.52,0.73-0.97,1.68-1.34,2.86
		s-0.7,2.48-0.96,3.92c-0.26,1.44-0.48,2.95-0.64,4.54s-0.29,3.16-0.39,4.73c-0.1,1.56-0.17,3.06-0.21,4.5s-0.09,2.73-0.12,3.86
		c-0.02,1-0.04,1.97-0.06,2.92s-0.04,1.9-0.06,2.84s-0.03,1.91-0.04,2.88c-0.01,0.97-0.02,1.97-0.02,3l-1.94,0.25l-0.29-0.03
		c-0.32-0.45-0.72-1.04-1.22-1.79c-0.49-0.75-1.05-1.6-1.66-2.57c-0.61-0.96-1.28-2.02-1.99-3.16s-1.46-2.33-2.22-3.57
		c-0.77-1.24-1.55-2.5-2.34-3.8c-0.79-1.29-1.58-2.57-2.36-3.84c-0.78-1.27-1.54-2.51-2.27-3.72s-1.43-2.34-2.07-3.41
		c-0.65-1.06-1.23-2.04-1.76-2.92c-0.53-0.88-0.98-1.63-1.35-2.24c-0.02,2.34-0.06,4.62-0.1,6.84s-0.11,4.35-0.18,6.39
		s-0.16,3.99-0.25,5.82c-0.09,1.84-0.19,3.55-0.29,5.12c-0.07,1.11-0.15,2.06-0.23,2.84c-0.08,0.78-0.17,1.44-0.29,1.96
		c-0.11,0.52-0.25,0.94-0.41,1.25c-0.16,0.31-0.37,0.54-0.61,0.69c-0.24,0.15-0.54,0.25-0.87,0.29s-0.74,0.06-1.21,0.06h-0.43
		c-0.08,0-0.19,0-0.32-0.01c-0.13,0-0.29-0.01-0.49-0.02l-0.22-0.16c0.46-1.03,0.86-2.18,1.21-3.45c0.36-1.27,0.67-2.62,0.93-4.04
		c0.26-1.42,0.5-2.9,0.69-4.42c0.2-1.52,0.36-3.04,0.48-4.57s0.23-3.03,0.31-4.5c0.08-1.48,0.14-2.88,0.18-4.22
		c0.04-1.33,0.07-2.57,0.08-3.72c0.01-1.14,0.02-2.14,0.02-2.99c0-0.46-0.03-0.84-0.1-1.17c-0.07-0.32-0.2-0.59-0.38-0.79
		c-0.19-0.21-0.44-0.36-0.75-0.45s-0.73-0.14-1.24-0.14c-0.36,0-0.77,0.02-1.21,0.06c-0.45,0.04-0.96,0.11-1.53,0.19l-0.17-1.4
		c0.89-0.2,1.69-0.38,2.42-0.54c0.72-0.16,1.37-0.29,1.95-0.4c0.58-0.11,1.11-0.19,1.58-0.25c0.47-0.06,0.9-0.09,1.28-0.09
		c0.39,0,0.73,0.05,1.02,0.14c0.29,0.1,0.56,0.25,0.81,0.46c0.25,0.21,0.49,0.5,0.73,0.85
		C281.33,376.09,281.59,376.53,281.87,377.04z"/>
	<path d="M308.06,383.7l-1.57-0.05c-0.03-1.28-0.05-2.42-0.05-3.42c0-1.03,0.05-1.91,0.14-2.64c0.09-0.74,0.29-1.34,0.6-1.82
		s0.74-0.83,1.32-1.05c0.58-0.22,1.34-0.33,2.3-0.33c0.6,0,1.3,0.02,2.08,0.05c0.78,0.03,1.61,0.06,2.48,0.09
		c0.87,0.03,1.76,0.06,2.68,0.1c0.92,0.03,1.8,0.05,2.66,0.05c1.44,0,2.71,0,3.81-0.01c1.1,0,2.08-0.01,2.94-0.02
		c0.86-0.01,1.61-0.03,2.26-0.05c0.65-0.02,1.24-0.05,1.77-0.09c0.53-0.04,1.03-0.09,1.49-0.15c0.46-0.06,0.93-0.13,1.41-0.21
		c0.18,0.51,0.27,0.93,0.27,1.26c0,0.7-0.29,1.23-0.88,1.6s-1.46,0.56-2.61,0.56c-1.09,0-2.38-0.07-3.85-0.2s-3.14-0.26-5-0.39
		c-0.03,1.57-0.07,3.24-0.12,5.02s-0.1,3.62-0.15,5.52s-0.11,3.84-0.17,5.83c-0.06,1.99-0.12,3.97-0.18,5.96
		c-0.06,1.99-0.12,3.95-0.18,5.9c-0.06,1.95-0.11,3.83-0.17,5.66l-3.76,0.48l-0.29-0.03c0.08-2.02,0.16-3.96,0.24-5.82
		c0.07-1.86,0.14-3.68,0.21-5.47c0.06-1.79,0.12-3.58,0.17-5.36c0.05-1.78,0.1-3.62,0.13-5.5c0.03-1.89,0.06-3.85,0.08-5.89
		c0.02-2.04,0.03-4.21,0.03-6.51c-0.6-0.02-1.22-0.04-1.84-0.05c-0.63-0.02-1.26-0.02-1.91-0.02c-0.65,0-1.25,0.01-1.81,0.03
		c-0.56,0.02-1.08,0.09-1.54,0.22c-0.47,0.13-0.88,0.33-1.25,0.6c-0.37,0.27-0.68,0.65-0.94,1.14c-0.25,0.49-0.45,1.12-0.58,1.88
		c-0.13,0.76-0.2,1.69-0.2,2.8V383.7z"/>
</g>
<g id="bowl">
	
		<ellipse id="black_bowl_1_" transform="matrix(0.8342 -0.5514 0.5514 0.8342 -67.0781 140.5902)" class="st2" cx="200.28" cy="181.85" rx="153.81" ry="153.76"/>
	
		<ellipse id="black_bowl" transform="matrix(0.8353 -0.5498 0.5498 0.8353 -66.9089 139.8021)" cx="199.86" cy="181.56" rx="148.84" ry="148.8"/>
</g>
<g id="noodles">
	<g>
		<path class="st3" d="M181.16,285.26c0,0,1.13-6-6.94-10.5c-8.06-4.5-2.06-12.75,0-13.88c2.06-1.13,6.3-4.69,6.99-10.13
			c0,0,0.88-3.56-7.93-9.38c-8.81-5.81,6-16.31,6-16.31s4.5-6-2.06-12.38c-7.09-5.06-8.44-10.31-0.56-15.94
			c7.88-5.62,3.56-13.13,2.44-13.31c-1.12-0.19-11.63-8.06-6.19-15c5.44-6.94,8.69-3.94,8.38-13.88c0,0-3.13-4.13-5.57-5.44
			c-2.44-1.31-6.94-7.5-1.5-12.56c5.44-5.06,10.42-8.06,7.09-14.06c-3.34-6-13.65-7.88-8.03-16.13c5.81-7.31,7.33-4.69,9.1-10.5
			c1.77-5.81-6.13-9.56-6.13-9.56s-7.29-6.38-3.35-8.44"/>
		<path class="st3" d="M168.65,285.26c0,0,1.13-6-6.94-10.5c-8.06-4.5-2.06-12.75,0-13.88c2.06-1.13,6.29-4.69,6.99-10.13
			c0,0,0.88-3.56-7.93-9.38c-8.81-5.81,6-16.31,6-16.31s4.5-6-2.06-12.38c-7.09-5.06-8.44-10.31-0.56-15.94
			c7.88-5.62,3.56-13.13,2.44-13.31c-1.13-0.19-11.63-8.06-6.19-15c5.44-6.94,8.69-3.94,8.38-13.88c0,0-3.13-4.13-5.57-5.44
			c-2.44-1.31-6.94-7.5-1.5-12.56c5.44-5.06,10.42-8.06,7.09-14.06c-3.34-6-13.65-7.88-8.03-16.13c5.81-7.31,7.33-4.69,9.1-10.5
			c1.77-5.81-6.13-9.56-6.13-9.56s-7.29-6.38-3.35-8.44"/>
		<path class="st3" d="M193.67,285.26c0,0,1.12-6-6.94-10.5c-8.06-4.5-2.06-12.75,0-13.88c2.06-1.13,6.3-4.69,6.99-10.13
			c0,0,0.88-3.56-7.93-9.38c-8.81-5.81,6-16.31,6-16.31s4.5-6-2.06-12.38c-7.09-5.06-8.44-10.31-0.56-15.94
			c7.88-5.62,3.56-13.13,2.44-13.31c-1.12-0.19-11.63-8.06-6.19-15c5.44-6.94,8.69-3.94,8.38-13.88c0,0-3.13-4.13-5.57-5.44
			c-2.44-1.31-6.94-7.5-1.5-12.56c5.44-5.06,10.42-8.06,7.09-14.06c-3.34-6-13.65-7.88-8.02-16.13c5.81-7.31,7.33-4.69,9.1-10.5
			c1.77-5.81-6.13-9.56-6.13-9.56s-7.29-6.38-3.35-8.44"/>
	</g>
	<g>
		<path class="st3" d="M119.66,285.26c0,0,1.12-6-6.94-10.5c-8.06-4.5-2.06-12.75,0-13.88c2.06-1.13,6.3-4.69,6.99-10.13
			c0,0,0.88-3.56-7.93-9.38c-8.81-5.81,6-16.31,6-16.31s4.5-6-2.06-12.38c-7.09-5.06-8.44-10.31-0.56-15.94
			c7.88-5.62,3.56-13.13,2.44-13.31c-1.13-0.19-11.63-8.06-6.19-15c5.44-6.94,8.69-3.94,8.38-13.88c0,0-3.13-4.13-5.57-5.44
			c-2.44-1.31-6.94-7.5-1.5-12.56c5.44-5.06,10.42-8.06,7.09-14.06c-3.34-6-13.65-7.88-8.03-16.13c5.81-7.31,7.33-4.69,9.1-10.5
			c1.77-5.81-6.13-9.56-6.13-9.56s-7.29-6.38-3.35-8.44"/>
		<path class="st3" d="M107.15,285.26c0,0,1.13-6-6.94-10.5c-8.06-4.5-2.06-12.75,0-13.88c2.06-1.13,6.3-4.69,6.99-10.13
			c0,0,0.88-3.56-7.93-9.38c-8.81-5.81,6-16.31,6-16.31s4.5-6-2.06-12.38c-7.09-5.06-8.44-10.31-0.56-15.94
			c7.88-5.62,3.56-13.13,2.44-13.31c-1.12-0.19-11.63-8.06-6.19-15c5.44-6.94,8.69-3.94,8.38-13.88c0,0-3.13-4.13-5.57-5.44
			c-2.44-1.31-6.94-7.5-1.5-12.56c5.44-5.06,10.42-8.06,7.09-14.06c-3.34-6-13.65-7.88-8.03-16.13c5.81-7.31,7.33-4.69,9.1-10.5
			c1.77-5.81-6.13-9.56-6.13-9.56s-7.29-6.38-3.35-8.44"/>
		<path class="st3" d="M132.17,285.26c0,0,1.13-6-6.94-10.5c-8.06-4.5-2.06-12.75,0-13.88s6.3-4.69,6.99-10.13
			c0,0,0.88-3.56-7.93-9.38c-8.81-5.81,6-16.31,6-16.31s4.5-6-2.06-12.38c-7.09-5.06-8.44-10.31-0.56-15.94
			c7.88-5.62,3.56-13.13,2.44-13.31c-1.13-0.19-11.63-8.06-6.19-15c5.44-6.94,8.69-3.94,8.38-13.88c0,0-3.13-4.13-5.57-5.44
			c-2.44-1.31-6.94-7.5-1.5-12.56c5.44-5.06,10.42-8.06,7.09-14.06c-3.34-6-13.65-7.88-8.02-16.13c5.81-7.31,7.33-4.69,9.1-10.5
			c1.77-5.81-6.13-9.56-6.13-9.56s-7.29-6.38-3.35-8.44"/>
	</g>
	<g>
		<path class="st3" d="M144.68,285.26c0,0,1.13-6-6.94-10.5c-8.06-4.5-2.06-12.75,0-13.88c2.06-1.13,6.3-4.69,6.99-10.13
			c0,0,0.88-3.56-7.93-9.38c-8.81-5.81,6-16.31,6-16.31s4.5-6-2.06-12.38c-7.09-5.06-8.44-10.31-0.56-15.94
			c7.88-5.62,3.56-13.13,2.44-13.31c-1.13-0.19-11.63-8.06-6.19-15c5.44-6.94,8.7-3.94,8.38-13.88c0,0-3.13-4.13-5.57-5.44
			c-2.44-1.31-6.94-7.5-1.5-12.56c5.44-5.06,10.42-8.06,7.09-14.06c-3.34-6-13.65-7.88-8.02-16.13c5.81-7.31,7.33-4.69,9.1-10.5
			c1.77-5.81-6.13-9.56-6.13-9.56s-7.29-6.38-3.35-8.44"/>
		<path class="st3" d="M132.17,285.26c0,0,1.13-6-6.94-10.5c-8.06-4.5-2.06-12.75,0-13.88s6.3-4.69,6.99-10.13
			c0,0,0.88-3.56-7.93-9.38c-8.81-5.81,6-16.31,6-16.31s4.5-6-2.06-12.38c-7.09-5.06-8.44-10.31-0.56-15.94
			c7.88-5.62,3.56-13.13,2.44-13.31c-1.13-0.19-11.63-8.06-6.19-15c5.44-6.94,8.69-3.94,8.38-13.88c0,0-3.13-4.13-5.57-5.44
			c-2.44-1.31-6.94-7.5-1.5-12.56c5.44-5.06,10.42-8.06,7.09-14.06c-3.34-6-13.65-7.88-8.02-16.13c5.81-7.31,7.33-4.69,9.1-10.5
			c1.77-5.81-6.13-9.56-6.13-9.56s-7.29-6.38-3.35-8.44"/>
		<path class="st3" d="M157.19,285.26c0,0,1.13-6-6.94-10.5c-8.06-4.5-2.06-12.75,0-13.88c2.06-1.13,6.3-4.69,6.99-10.13
			c0,0,0.88-3.56-7.93-9.38c-8.81-5.81,6-16.31,6-16.31s4.5-6-2.06-12.38c-7.09-5.06-8.44-10.31-0.56-15.94
			c7.88-5.62,3.56-13.13,2.44-13.31c-1.13-0.19-11.63-8.06-6.19-15c5.44-6.94,8.69-3.94,8.38-13.88c0,0-3.13-4.13-5.57-5.44
			c-2.44-1.31-6.94-7.5-1.5-12.56c5.44-5.06,10.42-8.06,7.09-14.06c-3.34-6-13.65-7.88-8.02-16.13c5.81-7.31,7.33-4.69,9.1-10.5
			c1.77-5.81-6.13-9.56-6.13-9.56s-7.29-6.38-3.35-8.44"/>
	</g>
	<g>
		<path class="st3" d="M217.14,285.26c0,0,1.12-6-6.94-10.5c-8.06-4.5-2.06-12.75,0-13.88c2.06-1.13,6.29-4.69,6.99-10.13
			c0,0,0.88-3.56-7.93-9.38c-8.81-5.81,6-16.31,6-16.31s4.5-6-2.06-12.38c-7.09-5.06-8.44-10.31-0.56-15.94
			c7.88-5.62,3.56-13.13,2.44-13.31c-1.12-0.19-11.63-8.06-6.19-15c5.44-6.94,8.69-3.94,8.38-13.88c0,0-3.13-4.13-5.57-5.44
			c-2.44-1.31-6.94-7.5-1.5-12.56c5.44-5.06,10.42-8.06,7.09-14.06c-3.34-6-13.65-7.88-8.03-16.13c5.81-7.31,7.33-4.69,9.1-10.5
			c1.77-5.81-6.13-9.56-6.13-9.56s-7.29-6.38-3.35-8.44"/>
		<path class="st3" d="M204.63,285.26c0,0,1.12-6-6.94-10.5c-8.06-4.5-2.06-12.75,0-13.88c2.06-1.13,6.29-4.69,6.99-10.13
			c0,0,0.88-3.56-7.93-9.38c-8.81-5.81,6-16.31,6-16.31s4.5-6-2.06-12.38c-7.09-5.06-8.44-10.31-0.56-15.94
			c7.88-5.62,3.56-13.13,2.44-13.31c-1.13-0.19-11.63-8.06-6.19-15c5.44-6.94,8.69-3.94,8.38-13.88c0,0-3.13-4.13-5.57-5.44
			c-2.44-1.31-6.94-7.5-1.5-12.56c5.44-5.06,10.42-8.06,7.09-14.06c-3.34-6-13.65-7.88-8.03-16.13c5.81-7.31,7.33-4.69,9.1-10.5
			c1.77-5.81-6.13-9.56-6.13-9.56s-7.29-6.38-3.35-8.44"/>
		<path class="st3" d="M229.65,285.26c0,0,1.13-6-6.94-10.5c-8.06-4.5-2.06-12.75,0-13.88c2.06-1.13,6.29-4.69,6.99-10.13
			c0,0,0.88-3.56-7.93-9.38c-8.81-5.81,6-16.31,6-16.31s4.5-6-2.06-12.38c-7.09-5.06-8.44-10.31-0.56-15.94
			c7.88-5.62,3.56-13.13,2.44-13.31c-1.13-0.19-11.63-8.06-6.19-15c5.44-6.94,8.69-3.94,8.38-13.88c0,0-3.13-4.13-5.57-5.44
			c-2.44-1.31-6.94-7.5-1.5-12.56c5.44-5.06,10.42-8.06,7.09-14.06c-3.34-6-13.65-7.88-8.03-16.13c5.81-7.31,7.33-4.69,9.1-10.5
			c1.77-5.81-6.13-9.56-6.13-9.56s-7.29-6.38-3.35-8.44"/>
	</g>
	<g>
		<path class="st3" d="M254.17,285.26c0,0,1.13-6-6.94-10.5c-8.06-4.5-2.06-12.75,0-13.88c2.06-1.13,6.3-4.69,6.99-10.13
			c0,0,0.88-3.56-7.93-9.38c-8.81-5.81,6-16.31,6-16.31s4.5-6-2.06-12.38c-7.09-5.06-8.44-10.31-0.56-15.94
			c7.88-5.62,3.56-13.13,2.44-13.31c-1.13-0.19-11.63-8.06-6.19-15c5.44-6.94,8.69-3.94,8.38-13.88c0,0-3.13-4.13-5.57-5.44
			c-2.44-1.31-6.94-7.5-1.5-12.56c5.44-5.06,10.42-8.06,7.09-14.06c-3.34-6-13.65-7.88-8.03-16.13c5.81-7.31,7.33-4.69,9.1-10.5
			c1.77-5.81-6.13-9.56-6.13-9.56s-7.29-6.38-3.35-8.44"/>
		<path class="st3" d="M241.66,285.26c0,0,1.12-6-6.94-10.5c-8.06-4.5-2.06-12.75,0-13.88c2.06-1.13,6.29-4.69,6.99-10.13
			c0,0,0.88-3.56-7.93-9.38c-8.81-5.81,6-16.31,6-16.31s4.5-6-2.06-12.38c-7.09-5.06-8.44-10.31-0.56-15.94
			c7.88-5.62,3.56-13.13,2.44-13.31c-1.13-0.19-11.63-8.06-6.19-15c5.44-6.94,8.69-3.94,8.38-13.88c0,0-3.13-4.13-5.57-5.44
			c-2.44-1.31-6.94-7.5-1.5-12.56c5.44-5.06,10.42-8.06,7.09-14.06c-3.34-6-13.65-7.88-8.03-16.13c5.81-7.31,7.33-4.69,9.1-10.5
			c1.77-5.81-6.13-9.56-6.13-9.56s-7.29-6.38-3.35-8.44"/>
		<path class="st3" d="M266.68,285.26c0,0,1.13-6-6.94-10.5c-8.06-4.5-2.06-12.75,0-13.88c2.06-1.13,6.3-4.69,6.99-10.13
			c0,0,0.88-3.56-7.93-9.38c-8.81-5.81,6-16.31,6-16.31s4.5-6-2.06-12.38c-7.09-5.06-8.44-10.31-0.56-15.94
			c7.88-5.62,3.56-13.13,2.44-13.31c-1.13-0.19-11.63-8.06-6.19-15c5.44-6.94,8.69-3.94,8.38-13.88c0,0-3.13-4.13-5.57-5.44
			c-2.44-1.31-6.94-7.5-1.5-12.56c5.44-5.06,10.42-8.06,7.09-14.06c-3.34-6-13.65-7.88-8.03-16.13c5.81-7.31,7.33-4.69,9.1-10.5
			c1.77-5.81-6.13-9.56-6.13-9.56s-7.29-6.38-3.35-8.44"/>
	</g>
	<g>
		<path class="st3" d="M289.6,285.26c0,0,1.13-6-6.94-10.5c-8.06-4.5-2.06-12.75,0-13.88c2.06-1.13,6.3-4.69,6.99-10.13
			c0,0,0.88-3.56-7.93-9.38c-8.81-5.81,6-16.31,6-16.31s4.5-6-2.06-12.38c-7.09-5.06-8.44-10.31-0.56-15.94
			c7.88-5.62,3.56-13.13,2.44-13.31c-1.13-0.19-11.63-8.06-6.19-15c5.44-6.94,8.69-3.94,8.38-13.88c0,0-3.13-4.13-5.57-5.44
			c-2.44-1.31-6.94-7.5-1.5-12.56c5.44-5.06,10.42-8.06,7.09-14.06c-3.34-6-13.65-7.88-8.02-16.13c5.81-7.31,7.33-4.69,9.1-10.5
			c1.77-5.81-6.13-9.56-6.13-9.56s-7.29-6.38-3.35-8.44"/>
		<path class="st3" d="M277.09,285.26c0,0,1.13-6-6.94-10.5c-8.06-4.5-2.06-12.75,0-13.88c2.06-1.13,6.3-4.69,6.99-10.13
			c0,0,0.88-3.56-7.93-9.38c-8.81-5.81,6-16.31,6-16.31s4.5-6-2.06-12.38c-7.09-5.06-8.44-10.31-0.56-15.94
			c7.88-5.62,3.56-13.13,2.44-13.31c-1.13-0.19-11.63-8.06-6.19-15c5.44-6.94,8.69-3.94,8.38-13.88c0,0-3.13-4.13-5.57-5.44
			c-2.44-1.31-6.94-7.5-1.5-12.56c5.44-5.06,10.42-8.06,7.09-14.06c-3.34-6-13.65-7.88-8.03-16.13c5.81-7.31,7.33-4.69,9.1-10.5
			c1.77-5.81-6.13-9.56-6.13-9.56s-7.29-6.38-3.35-8.44"/>
		<path class="st3" d="M302.11,285.26c0,0,1.13-6-6.94-10.5c-8.06-4.5-2.06-12.75,0-13.88c2.06-1.13,6.3-4.69,6.99-10.13
			c0,0,0.88-3.56-7.93-9.38c-8.81-5.81,6-16.31,6-16.31s4.5-6-2.06-12.38c-7.09-5.06-8.44-10.31-0.56-15.94
			c7.88-5.62,3.56-13.13,2.44-13.31c-1.13-0.19-11.63-8.06-6.19-15c5.44-6.94,8.69-3.94,8.38-13.88c0,0-3.13-4.13-5.57-5.44
			c-2.44-1.31-6.94-7.5-1.5-12.56c5.44-5.06,10.42-8.06,7.09-14.06c-3.34-6-13.65-7.88-8.03-16.13c5.81-7.31,7.33-4.69,9.1-10.5
			c1.77-5.81-6.13-9.56-6.13-9.56s-7.29-6.38-3.35-8.44"/>
	</g>
</g>
<g id="chopstick">
	<g>
		<path class="st1" d="M246.43,83.75l-79.32,245.69l11.94,3.77l84.97-284.4c0,0-2.82-5.47-5.63,2.91
			C255.58,60.11,246.43,83.75,246.43,83.75z"/>
		<path class="st4" d="M179.05,333.22l-11.57,40.57c0,0-9.29,2.61-12.78-4.23l12.4-40.09L179.05,333.22z"/>
	</g>
	<g>
		<path class="st1" d="M214.29,67.62l8.93,258.03L210.71,326L206.96,29.2c0,0,4.21-4.49,4.61,4.34
			C211.97,42.38,214.29,67.62,214.29,67.62z"/>
		<path class="st4" d="M210.71,326l0.01,42.18c0,0,8.22,5.06,13.44-0.56l-0.94-41.95L210.71,326z"/>
	</g>
</g>
<g id="_x35_M">
	<g>
		<path class="st1" d="M144.39,415.28c-1.29,0.56-2.48,1.04-3.56,1.44s-2.09,0.74-3.03,1c-0.93,0.26-1.8,0.45-2.61,0.58
			c-0.81,0.13-1.59,0.19-2.34,0.19c-1.02,0-1.92-0.19-2.69-0.58c-0.77-0.39-1.41-1.02-1.92-1.9c-0.51-0.88-0.89-2.04-1.14-3.47
			c-0.25-1.44-0.38-3.21-0.38-5.33v-2.37c0-1.11,0-2.4,0.01-3.86c0.01-1.46,0.02-3.01,0.04-4.65c0.02-1.64,0.04-3.31,0.07-5.02
			s0.06-3.35,0.09-4.94c0.04-1.59,0.07-3.07,0.11-4.45c0.04-1.38,0.07-2.56,0.11-3.52c0.09-2.1,0.19-4.19,0.31-6.28
			c0.12-2.09,0.27-4.14,0.47-6.15l-0.22-0.08c-0.31,0.81-0.67,1.73-1.1,2.76s-0.98,2.27-1.64,3.73c-1.58,3.48-3.19,7.08-4.83,10.82
			s-3.3,7.54-4.98,11.42c-1.68,3.88-3.37,7.82-5.07,11.81c-1.7,3.99-3.4,7.98-5.08,11.96l-1.32-0.05c-0.38-1.22-0.83-2.66-1.37-4.32
			s-1.13-3.45-1.78-5.38c-0.65-1.93-1.33-3.96-2.06-6.11c-0.73-2.14-1.47-4.31-2.22-6.51c-0.75-2.2-1.51-4.39-2.27-6.58
			c-0.76-2.19-1.5-4.3-2.21-6.32c-0.71-2.03-1.38-3.93-2.02-5.72c-0.64-1.78-1.21-3.38-1.71-4.78c-0.57-1.63-1.07-3.08-1.49-4.33
			c-0.42-1.25-0.78-2.37-1.09-3.34l-0.19,0.08c0,0.54,0,1.07,0.01,1.6c0.01,0.53,0.01,1.1,0.01,1.71v4.44
			c0,2.85-0.04,5.76-0.13,8.73c-0.09,2.97-0.21,5.89-0.35,8.77c-0.14,2.88-0.31,5.66-0.51,8.35c-0.2,2.69-0.4,5.17-0.62,7.45
			c-0.18,1.88-0.35,3.48-0.5,4.8s-0.32,2.43-0.51,3.32c-0.19,0.9-0.42,1.6-0.69,2.11s-0.6,0.9-1.01,1.17
			c-0.4,0.27-0.9,0.44-1.48,0.51c-0.58,0.07-1.28,0.11-2.08,0.11h-0.81c-0.16,0-0.36,0-0.59-0.01c-0.23-0.01-0.52-0.02-0.86-0.04
			l-0.38-0.27c0.84-1.74,1.59-3.68,2.25-5.82c0.65-2.14,1.23-4.42,1.72-6.82s0.92-4.89,1.28-7.47c0.36-2.57,0.66-5.14,0.9-7.71
			s0.44-5.09,0.59-7.59c0.15-2.49,0.26-4.86,0.34-7.1c0.07-2.24,0.12-4.31,0.15-6.21s0.04-3.56,0.04-4.98
			c0-0.91-0.06-1.67-0.19-2.26c-0.13-0.59-0.35-1.06-0.66-1.41c-0.31-0.35-0.74-0.59-1.29-0.73s-1.25-0.2-2.11-0.2
			c-0.59,0-1.27,0.04-2.04,0.12c-0.77,0.08-1.62,0.19-2.56,0.34l-0.3-2.37c3.28-0.75,5.98-1.31,8.1-1.68
			c2.12-0.37,3.8-0.55,5.06-0.55c0.65,0,1.2,0.06,1.67,0.17c0.47,0.12,0.87,0.31,1.22,0.59c0.35,0.28,0.66,0.65,0.93,1.1
			c0.27,0.46,0.53,1.03,0.78,1.71c0.95,2.65,1.95,5.48,3.01,8.47c1.06,3,2.14,6.05,3.24,9.17c1.1,3.12,2.21,6.25,3.31,9.38
			c1.1,3.13,2.17,6.17,3.19,9.11c0.39,1.17,0.76,2.23,1.09,3.19c0.33,0.96,0.64,1.85,0.92,2.66c0.28,0.82,0.54,1.6,0.78,2.34
			c0.24,0.74,0.47,1.48,0.69,2.22h0.19c0.29-0.77,0.58-1.53,0.89-2.27c0.3-0.74,0.63-1.52,0.97-2.31c0.34-0.8,0.71-1.65,1.12-2.57
			c0.4-0.92,0.86-1.95,1.36-3.09c1.25-2.87,2.56-5.85,3.91-8.93c1.35-3.08,2.74-6.24,4.17-9.47c1.43-3.23,2.87-6.5,4.34-9.82
			c1.47-3.32,2.95-6.65,4.44-9.98c0.16-0.36,0.38-0.65,0.66-0.89c0.28-0.23,0.58-0.42,0.91-0.55c0.33-0.13,0.68-0.23,1.04-0.28
			s0.69-0.08,1-0.08c0.52,0,1.09,0.07,1.71,0.2c0.62,0.13,1.21,0.33,1.79,0.58c-0.27,2.94-0.51,5.76-0.71,8.45
			c-0.21,2.69-0.38,5.31-0.52,7.86c-0.14,2.55-0.27,5.06-0.38,7.55c-0.11,2.48-0.19,4.99-0.24,7.52c-0.05,2.53-0.09,5.11-0.12,7.75
			c-0.03,2.64-0.04,5.39-0.04,8.26c0,1.9,0.08,3.52,0.24,4.87c0.16,1.34,0.44,2.44,0.85,3.29c0.4,0.85,0.95,1.48,1.63,1.87
			c0.68,0.39,1.53,0.59,2.56,0.59c0.38,0,0.74-0.01,1.09-0.03c0.35-0.02,0.71-0.06,1.09-0.12c0.38-0.06,0.79-0.16,1.25-0.28
			c0.46-0.13,0.98-0.29,1.57-0.48L144.39,415.28z"/>
	</g>
	<g>
		<rect x="14.17" y="313.17" class="st5" width="66.84" height="133.58"/>
		<path class="st1" d="M67.56,360.06c0.59,1.02,0.89,1.96,0.89,2.83c0,1.42-0.78,2.5-2.35,3.24c-1.57,0.75-3.75,1.12-6.55,1.12
			c-1.99,0-4.24-0.16-6.74-0.47c-2.5-0.31-5.28-0.78-8.33-1.39c-0.11,1.27-0.23,2.65-0.36,4.12c-0.13,1.47-0.29,2.96-0.47,4.45
			c-0.18,1.5-0.38,2.96-0.59,4.37c-0.22,1.42-0.46,2.7-0.73,3.85l0.11,0.05c1.99-0.92,3.91-1.59,5.74-2.03s3.63-0.66,5.37-0.66
			c2.31,0,4.44,0.37,6.39,1.12c1.95,0.75,3.62,1.8,5.02,3.17s2.49,3.03,3.28,4.98c0.79,1.95,1.18,4.11,1.18,6.5
			c0,1.83-0.23,3.68-0.69,5.56c-0.46,1.87-1.13,3.68-2,5.41c-0.88,1.73-1.97,3.36-3.27,4.88c-1.3,1.52-2.79,2.85-4.48,3.97
			c-1.69,1.12-3.56,2.01-5.64,2.66c-2.07,0.65-4.32,0.98-6.74,0.98c-0.74,0-1.54-0.05-2.42-0.16c-0.88-0.11-1.76-0.28-2.65-0.52
			s-1.75-0.56-2.58-0.94c-0.83-0.39-1.57-0.86-2.21-1.41s-1.15-1.2-1.53-1.94c-0.39-0.74-0.58-1.58-0.58-2.53
			c0-0.5,0.11-1,0.32-1.48s0.51-0.92,0.89-1.32c0.38-0.39,0.82-0.71,1.35-0.96c0.52-0.24,1.08-0.36,1.69-0.36
			c0.54,1.36,1.2,2.53,1.98,3.51c0.78,0.98,1.63,1.78,2.56,2.42c0.92,0.64,1.9,1.11,2.93,1.41s2.06,0.46,3.08,0.46
			c1.35,0,2.6-0.22,3.78-0.67c1.17-0.45,2.24-1.07,3.2-1.86s1.81-1.72,2.56-2.78c0.74-1.07,1.37-2.23,1.88-3.48
			c0.51-1.25,0.9-2.57,1.17-3.94s0.4-2.76,0.4-4.16c0-2.08-0.31-4.02-0.93-5.81c-0.62-1.79-1.49-3.35-2.62-4.68
			c-1.13-1.33-2.49-2.37-4.08-3.12c-1.59-0.75-3.36-1.13-5.31-1.13c-1.4,0-2.86,0.19-4.38,0.58c-1.52,0.39-3.16,1.01-4.9,1.87
			l-1.24-1.78c0.66-3.46,1.2-7.18,1.6-11.17c0.4-3.98,0.7-8.08,0.9-12.29c0.99,0.05,1.93,0.1,2.82,0.15
			c0.9,0.04,1.78,0.08,2.64,0.11c0.86,0.03,1.71,0.05,2.56,0.07c0.84,0.02,1.71,0.03,2.61,0.03c2.55,0,5.08-0.05,7.59-0.15
			C62.19,360.62,64.81,360.4,67.56,360.06z"/>
	</g>
</g>
<g>
</g>
<g>
</g>
<g>
</g>
<g>
</g>
<g>
</g>
<g>
</g>
</svg>
