<?xml version="1.0" encoding="utf-8"?>
<!-- Generator: Adobe Illustrator 23.0.5, SVG Export Plug-In . SVG Version: 6.00 Build 0)  -->
<svg version="1.0" xmlns="http://www.w3.org/2000/svg" xmlns:xlink="http://www.w3.org/1999/xlink" x="0px" y="0px"
	 viewBox="0 0 381.03 94.85" style="enable-background:new 0 0 381.03 94.85;" xml:space="preserve">
<style type="text/css">
	.st0{display:none;}
	.st1{display:inline;stroke:#FFFFFF;stroke-width:0.9438;stroke-miterlimit:10;}
	.st2{fill:#FFFFFF;}
	.st3{stroke:#FFFFFF;stroke-width:1.1824;stroke-miterlimit:10;}
</style>
<g id="bk" class="st0">
	<rect class="st1" width="381.03" height="94.85"/>
</g>
<g id="social_media_icons">
	<g id="twitter">
		<path class="st2" d="M264.09,62.34c0,7.84-6.35,14.19-14.19,14.19h-28.38c-7.84,0-14.19-6.35-14.19-14.19V33.96
			c0-7.84,6.35-14.19,14.19-14.19h28.38c7.84,0,14.19,6.35,14.19,14.19V62.34z"/>
		<g>
			<path class="st3" d="M252.47,34.48c-1.41,0.82-2.97,1.42-4.62,1.74c-1.33-1.39-3.22-2.26-5.31-2.26c-4.02,0-7.28,3.21-7.28,7.16
				c0,0.56,0.06,1.11,0.19,1.63c-6.05-0.3-11.41-3.15-15-7.48c-0.63,1.06-0.99,2.29-0.99,3.6c0,2.48,1.29,4.68,3.24,5.96
				c-1.19-0.04-2.32-0.36-3.3-0.9c0,0.03,0,0.06,0,0.09c0,3.47,2.51,6.37,5.84,7.03c-0.61,0.16-1.25,0.25-1.92,0.25
				c-0.47,0-0.92-0.05-1.37-0.13c0.93,2.85,3.61,4.92,6.8,4.98c-2.49,1.92-5.63,3.07-9.04,3.07c-0.59,0-1.17-0.03-1.74-0.1
				c3.22,2.03,7.05,3.22,11.16,3.22c13.39,0,20.71-10.91,20.71-20.38c0-0.31,0-0.62-0.02-0.93c1.42-1.01,2.66-2.27,3.63-3.71
				c-1.3,0.57-2.71,0.95-4.18,1.13C250.77,37.56,251.92,36.16,252.47,34.48z"/>
		</g>
	</g>
	<g id="fb">
		<path class="st2" d="M95.29,61.34c0,7.84-6.35,14.19-14.19,14.19H52.73c-7.84,0-14.19-6.35-14.19-14.19V32.96
			c0-7.84,6.35-14.19,14.19-14.19H81.1c7.84,0,14.19,6.35,14.19,14.19V61.34z"/>
		<g>
			<path d="M62.19,64.88h7.09c0,0,0-9.79,0-17.74h5.26l0.65-7.09h-5.64v-2.84c0-1.38,0.92-1.7,1.57-1.7c0.65,0,3.98,0,3.98,0v-6.08
				l-5.48-0.02c-6.08,0-7.47,4.53-7.47,7.43v3.21h-3.52v7.09h3.55C62.19,55.19,62.19,64.88,62.19,64.88z"/>
		</g>
	</g>
	<g id="ins">
		<path class="st2" d="M180.76,61.61c0,7.84-6.35,14.19-14.19,14.19h-28.38c-7.84,0-14.19-6.35-14.19-14.19V33.24
			c0-7.84,6.35-14.19,14.19-14.19h28.38c7.84,0,14.19,6.35,14.19,14.19V61.61z"/>
		<g>
			<path d="M163.26,29.69H141.5c-3.78,0-6.85,3.07-6.85,6.85v7.24v14.52c0,3.78,3.07,6.85,6.85,6.85h21.76
				c3.78,0,6.86-3.07,6.86-6.85V43.79v-7.24C170.12,32.76,167.04,29.69,163.26,29.69z M165.23,33.78l0.78,0v0.78v5.23l-5.99,0.02
				L160,33.8L165.23,33.78z M147.32,43.79c1.14-1.57,2.98-2.6,5.06-2.6s3.93,1.03,5.06,2.6c0.74,1.03,1.18,2.28,1.18,3.64
				c0,3.44-2.8,6.24-6.24,6.24c-3.44,0-6.24-2.8-6.24-6.24C146.14,46.07,146.58,44.81,147.32,43.79z M166.66,58.31
				c0,1.88-1.53,3.4-3.4,3.4H141.5c-1.88,0-3.4-1.52-3.4-3.4V43.79h5.3c-0.46,1.12-0.71,2.35-0.71,3.64c0,5.35,4.35,9.7,9.7,9.7
				c5.35,0,9.7-4.35,9.7-9.7c0-1.29-0.26-2.51-0.72-3.64h5.3V58.31z"/>
		</g>
	</g>
	<g id="youtude">
		<path class="st2" d="M346.47,62.34c0,7.84-6.35,14.19-14.19,14.19H303.9c-7.84,0-14.19-6.35-14.19-14.19V33.96
			c0-7.84,6.35-14.19,14.19-14.19h28.38c7.84,0,14.19,6.35,14.19,14.19V62.34z"/>
		<g>
			<path d="M327.58,54.28c-0.28,0-0.49,0.08-0.61,0.25c-0.13,0.16-0.19,0.44-0.19,0.82v0.93h1.59v-0.93c0-0.38-0.06-0.66-0.19-0.82
				C328.05,54.37,327.85,54.28,327.58,54.28z"/>
			<g>
				<path d="M321.39,54.25c-0.13,0-0.26,0.03-0.38,0.09c-0.12,0.06-0.25,0.15-0.37,0.28v5.72c0.15,0.15,0.29,0.26,0.42,0.33
					c0.14,0.06,0.28,0.1,0.43,0.1c0.22,0,0.38-0.06,0.48-0.2c0.1-0.13,0.15-0.34,0.15-0.63V55.2c0-0.31-0.06-0.55-0.19-0.71
					C321.82,54.33,321.63,54.25,321.39,54.25z"/>
				<g>
					<path d="M329.35,46.97h-22.51c-3.58,0-6.48,3.31-6.48,6.97v5.32c0,3.66,2.9,6.62,6.48,6.62h22.51c3.58,0,6.48-2.97,6.48-6.62
						v-5.32C335.83,50.28,332.93,46.97,329.35,46.97z M311.56,51.45h-2.09v10.63h-2.02V51.45h-2.09v-1.81h6.21V51.45z M317.48,62.08
						h-1.79v-1.01c-0.33,0.37-0.67,0.66-1.03,0.85c-0.36,0.2-0.7,0.29-1.04,0.29c-0.42,0-0.73-0.14-0.94-0.41
						c-0.21-0.27-0.32-0.68-0.32-1.23v-7.67h1.79v7.04c0,0.22,0.04,0.37,0.11,0.47c0.08,0.1,0.2,0.15,0.37,0.15
						c0.13,0,0.3-0.06,0.5-0.19c0.2-0.13,0.39-0.29,0.55-0.49v-6.97h1.79V62.08z M323.99,60.19c0,0.65-0.14,1.15-0.42,1.49
						c-0.28,0.35-0.69,0.52-1.22,0.52c-0.35,0-0.67-0.06-0.94-0.2c-0.27-0.13-0.53-0.34-0.77-0.62v0.7h-1.81V49.64h1.81v4.01
						c0.24-0.28,0.5-0.49,0.77-0.64c0.27-0.15,0.55-0.22,0.83-0.22c0.57,0,1,0.19,1.3,0.59c0.3,0.39,0.45,0.96,0.45,1.72V60.19z
						 M330.21,57.72h-3.43v1.73c0,0.48,0.06,0.82,0.18,1.01c0.12,0.19,0.32,0.28,0.61,0.28c0.3,0,0.5-0.08,0.62-0.24
						c0.12-0.16,0.18-0.51,0.18-1.05v-0.42h1.85v0.47c0,0.94-0.22,1.65-0.68,2.13c-0.45,0.47-1.12,0.71-2.01,0.71
						c-0.81,0-1.44-0.25-1.9-0.76c-0.46-0.5-0.69-1.2-0.69-2.08v-4.12c0-0.79,0.25-1.45,0.76-1.95c0.51-0.5,1.16-0.75,1.96-0.75
						c0.82,0,1.45,0.23,1.89,0.7c0.44,0.47,0.66,1.13,0.66,2V57.72z"/>
					<polygon points="307.07,30.41 309.78,38.69 309.78,44.12 312.06,44.12 312.06,38.43 314.7,30.41 312.39,30.41 310.98,35.89 
						310.84,35.89 309.36,30.41 					"/>
					<path d="M315.68,34.45c-0.54,0.46-0.81,1.09-0.81,1.87v5.24c0,0.86,0.27,1.54,0.79,2.05c0.53,0.51,1.24,0.76,2.12,0.76
						c0.92,0,1.64-0.25,2.16-0.74c0.52-0.49,0.78-1.17,0.78-2.04v-5.22c0-0.77-0.27-1.4-0.8-1.89c-0.54-0.49-1.22-0.73-2.06-0.73
						C316.96,33.75,316.23,33.99,315.68,34.45z M318.67,36.24v5.51c0,0.27-0.08,0.48-0.24,0.64c-0.16,0.15-0.38,0.23-0.65,0.23
						c-0.27,0-0.47-0.07-0.62-0.23c-0.14-0.15-0.21-0.36-0.21-0.64v-5.51c0-0.22,0.08-0.4,0.23-0.54c0.16-0.14,0.36-0.2,0.6-0.2
						c0.27,0,0.48,0.07,0.65,0.2C318.59,35.85,318.67,36.02,318.67,36.24z"/>
					<path d="M328.14,44.12V34.01h-2.02v7.67c-0.19,0.22-0.39,0.4-0.62,0.54c-0.23,0.14-0.42,0.21-0.57,0.21
						c-0.19,0-0.33-0.05-0.41-0.16c-0.08-0.11-0.13-0.28-0.13-0.52v-7.75h-2.02v8.45c0,0.6,0.12,1.05,0.36,1.35
						c0.24,0.3,0.59,0.46,1.06,0.46c0.38,0,0.77-0.11,1.17-0.32c0.41-0.22,0.79-0.53,1.16-0.94v1.12H328.14z"/>
				</g>
			</g>
		</g>
	</g>
	<g>
	</g>
	<g>
	</g>
	<g>
	</g>
	<g>
	</g>
	<g>
	</g>
	<g>
	</g>
</g>
</svg>
